<svg width="10" height="6" viewBox="0 0 10 6" fill="none" xmlns="http://www.w3.org/2000/svg">
<path fill-rule="evenodd" clip-rule="evenodd" d="M5.69591 5.53929C5.69079 5.55015 5.6797 5.55516 5.67373 5.56101C5.52616 5.70552 5.33507 5.79658 5.14398 5.82331C5.12777 5.82331 5.11156 5.82832 5.0945 5.82832C5.06209 5.83333 5.02882 5.83333 4.9964 5.83333L4.90342 5.82832C4.88721 5.82832 4.871 5.82331 4.85394 5.82331C4.65774 5.79658 4.47177 5.70553 4.32419 5.56101C4.31907 5.556 4.30798 5.54514 4.30201 5.53929L0.278089 1.59903C0.0921226 1.41693 0 1.17635 0 0.935775C0 0.695202 0.092983 0.454629 0.278089 0.272521C0.649165 -0.0908403 1.2557 -0.0908403 1.63189 0.272521L5 3.52868L8.38204 0.273376C8.75312 -0.0899849 9.35965 -0.0899849 9.73584 0.273376C10.0907 0.642597 10.0907 1.23567 9.71963 1.59903L5.69591 5.53929Z" fill="#515464"/>
</svg>
