<svg id="Group_35" data-name="Group 35" xmlns="http://www.w3.org/2000/svg" xmlns:xlink="http://www.w3.org/1999/xlink" width="27.492" height="40.732" viewBox="0 0 27.492 40.732">
  <defs>
    <clipPath id="clip-path">
      <path id="Clip_8" data-name="Clip 8" d="M0,0H5.961V3.244H0Z" transform="translate(0.026 0.023)" fill="none"/>
    </clipPath>
    <clipPath id="clip-path-2">
      <path id="Clip_19" data-name="Clip 19" d="M0,0H5.7V1.14H0Z" transform="translate(0 0.014)" fill="none"/>
    </clipPath>
  </defs>
  <path id="Fill_1" data-name="Fill 1" d="M19.612,5.689A10.593,10.593,0,0,0,10.375,0,10.355,10.355,0,0,0,.147,8.437,11,11,0,0,0,.511,13.46,52.293,52.293,0,0,0,5.857,24.911c.165.285.332.588.631.681a.633.633,0,0,0,.4.014l8.359-1.95A.762.762,0,0,0,15.4,23.6a1.14,1.14,0,0,0,.46-.529c.718-1.3,1.409-2.623,2.054-3.965a29.176,29.176,0,0,0,2.613-7.134,9.974,9.974,0,0,0-.918-6.287" transform="translate(6.727 6.752)" fill="#fbb745"/>
  <path id="Fill_3" data-name="Fill 3" d="M10.246,0a1.066,1.066,0,0,1,.822,1.524,1.029,1.029,0,0,1-.663.494l-9.156,2.1A1.061,1.061,0,0,1,.1,2.674a1.037,1.037,0,0,1,.575-.513,1.02,1.02,0,0,1,.117-.034L9.944.026a.968.968,0,0,1,.3-.024" transform="translate(12.796 33.617)" fill="#555abf"/>
  <path id="Fill_5" data-name="Fill 5" d="M8.938,0a.878.878,0,0,1,.429.127,1.063,1.063,0,0,1,.207,1.638,1.027,1.027,0,0,1-.331.211,1.222,1.222,0,0,1-.162.049L1.235,3.687A1.065,1.065,0,0,1,.01,2.532,1.047,1.047,0,0,1,.7,1.712a1.06,1.06,0,0,1,.109-.029L8.657.022A.963.963,0,0,1,8.938,0" transform="translate(13.892 36.521)" fill="#555abf"/>
  <g id="Group_9" data-name="Group 9" transform="translate(15.647 37.465)">
    <path id="Clip_8-2" data-name="Clip 8" d="M0,0H5.961V3.244H0Z" transform="translate(0.026 0.023)" fill="none"/>
    <g id="Group_9-2" data-name="Group 9" clip-path="url(#clip-path)">
      <path id="Fill_7" data-name="Fill 7" d="M5.961,1.622A1.619,1.619,0,0,0,4.346,0L1.815.357C.924.357,0,.727,0,1.622A1.619,1.619,0,0,0,1.615,3.244H4.346A1.619,1.619,0,0,0,5.961,1.622" transform="translate(0.026 0.023)" fill="#555abf"/>
    </g>
  </g>
  <path id="Fill_10" data-name="Fill 10" d="M5.342,18.514a.534.534,0,0,1-.516-.381.428.428,0,0,1-.014-.1v-.022C4.771,13.885,4.59,9.724,4.257,5.3l0-.059L4.18,5.226l-.074-.012C2.873,5.014,1.14,4.606.339,3.369A2.365,2.365,0,0,1,.112,1.425,1.937,1.937,0,0,1,1.2.165,2.266,2.266,0,0,1,2.076,0h.008A3.376,3.376,0,0,1,4.859,2.372a6.959,6.959,0,0,1,.333,1.814l.012.139c.352.019.67.036.991.036A5.323,5.323,0,0,0,7.2,4.279s.47.006.59.311A.469.469,0,0,1,7.758,5a.613.613,0,0,1-.44.294,6.682,6.682,0,0,1-1.125.082c-.295,0-.593-.012-.9-.025H5.284q.01.134.02.267v.013q.009.129.019.258c.3,4.23.466,8.12.506,11.894.006.518-.127.618-.3.7A.458.458,0,0,1,5.342,18.514ZM2.05,1.018a1.033,1.033,0,0,0-.793.429,1.2,1.2,0,0,0-.221,1.009c.163.637.813,1.119,1.985,1.473a9.423,9.423,0,0,0,1.126.259l.022,0a4.165,4.165,0,0,0-.9-2.549A1.7,1.7,0,0,0,2.1,1.019Z" transform="translate(11.187 13.795)" fill="#fff"/>
  <path id="Fill_12" data-name="Fill 12" d="M1.414,18.587H1.4a.532.532,0,0,1-.5-.491l-.017-.536c-.127-3.934-.258-8-.183-12l0-.09a2.069,2.069,0,0,1-.24.022.279.279,0,0,1-.116-.023L.33,5.463a.509.509,0,0,1-.306-.337.493.493,0,0,1,.067-.442c.109-.147.28-.191.644-.24l.01-.266A5.2,5.2,0,0,1,1.6,1.266,2.754,2.754,0,0,1,3.768,0h.049A2,2,0,0,1,5.324.7a2.314,2.314,0,0,1,.182,2.672A4.91,4.91,0,0,1,2.481,5.142c-.242.062-.49.117-.739.165l-.01,0c-.089,3.993.042,8.048.168,11.969l.025.785C1.921,18.085,1.8,18.587,1.414,18.587ZM3.776,1.015A2.068,2.068,0,0,0,2.147,2.342a4.871,4.871,0,0,0-.381,1.875l0,.049A4.7,4.7,0,0,0,4.583,2.915,1.3,1.3,0,0,0,4.4,1.2.9.9,0,0,0,3.776,1.015Z" transform="translate(17.768 13.65)" fill="#fff"/>
  <path id="Fill_14" data-name="Fill 14" d="M.522,0A.422.422,0,0,1,.7.041.48.48,0,0,1,1,.5L1.1,5.241c0,.437-.689.721-.941.256a.442.442,0,0,1-.062-.235L0,.519A.441.441,0,0,1,.029.338.479.479,0,0,1,.492,0h.03" transform="translate(16.525)" fill="#ffd91e"/>
  <g id="Group_20" data-name="Group 20" transform="translate(0 16.409)">
    <path id="Clip_19-2" data-name="Clip 19" d="M0,0H5.7V1.14H0Z" transform="translate(0 0.014)" fill="none"/>
  </g>
  <path id="Fill_29" data-name="Fill 29" d="M3.6,0a.384.384,0,0,1,.324.128.526.526,0,0,1,.055.712L.91,4.5c-.3.335-1.041.078-.89-.464a.437.437,0,0,1,.1-.192L3.192.183A.545.545,0,0,1,3.6,0" transform="translate(23.398 2.614)" fill="#ffd91e"/>
  <path id="Fill_31" data-name="Fill 31" d="M.542,0A.549.549,0,0,1,.9.183L3.967,3.823c.163.2.128.269.117.379A.531.531,0,0,1,3.2,4.5l-.018-.02L.108.836A.517.517,0,0,1,.515,0H.542" transform="translate(6.508 2.686)" fill="#ffd91e"/>
  <path id="Fill_33" data-name="Fill 33" d="M10.206,0a.883.883,0,0,1,.459.145A1.052,1.052,0,0,1,10.423,2l-.059.015L1.229,4.108A.882.882,0,0,1,.748,4.1a1.057,1.057,0,0,1-.5-1.685,1.078,1.078,0,0,1,.518-.3L9.9.026a.965.965,0,0,1,.3-.024" transform="translate(12.576 30.93)" fill="#555abf"/>
</svg>
