<svg xmlns="http://www.w3.org/2000/svg" width="23" height="23" viewBox="0 0 23 23">
    <path id="Fill_1" data-name="Fill 1"
          d="M8.535,23a.382.382,0,0,1-.132-.024,8.552,8.552,0,0,1-1.679-.623.566.566,0,0,1-.207-.147A2.232,2.232,0,0,1,6.1,20.39a.208.208,0,0,1,.032-.117,1.1,1.1,0,0,0-.383-1.009l-.032-.032-.529-.46a1.327,1.327,0,0,0-.354-.2,1.1,1.1,0,0,0-.378-.067H4.451a1.077,1.077,0,0,0-.346.058.137.137,0,0,1-.09.034l-.027,0a2.129,2.129,0,0,1-1.84-.116.276.276,0,0,1-.179-.18,13.038,13.038,0,0,1-.881-1.522.787.787,0,0,1-.058-.229,2.2,2.2,0,0,1,.822-1.7.165.165,0,0,1,.086-.058,1.146,1.146,0,0,0,.354-1.041v-.032a4.98,4.98,0,0,1-.117-.69v-.031a1.01,1.01,0,0,0-.674-.835.918.918,0,0,0-.118-.032A2.168,2.168,0,0,1,.033,10.775.626.626,0,0,1,0,10.545a11.474,11.474,0,0,1,.3-1.67.535.535,0,0,1,.117-.212A2.138,2.138,0,0,1,2.1,7.856h.181a1.021,1.021,0,0,0,.91-.565A.03.03,0,0,1,3.2,7.269a.031.031,0,0,1,.022-.01,4.865,4.865,0,0,1,.338-.6.028.028,0,0,1,.007-.022.03.03,0,0,1,.022-.01,1.12,1.12,0,0,0,.035-1.1.517.517,0,0,0-.058-.089,2.229,2.229,0,0,1-.175-1.965.858.858,0,0,1,.117-.212A8.245,8.245,0,0,1,4.742,2.219a.306.306,0,0,1,.207-.089,2.15,2.15,0,0,1,1.882.508.131.131,0,0,0,.041.029.142.142,0,0,1,.044.032,1.054,1.054,0,0,0,.647.23,2.082,2.082,0,0,0,.414-.058l.163-.058c.185-.066.357-.128.511-.171a1.045,1.045,0,0,0,.7-.834.1.1,0,0,1,.032-.09A2.194,2.194,0,0,1,10.5.081a.589.589,0,0,1,.207-.058C10.975.008,11.241,0,11.5,0s.53.008.792.024A.41.41,0,0,1,12.5.078,2.113,2.113,0,0,1,13.62,1.688a.533.533,0,0,1,.032.118,1.087,1.087,0,0,0,.7.834,4.62,4.62,0,0,1,.674.23,1.093,1.093,0,0,0,.414.09h.022a.97.97,0,0,0,.625-.231.155.155,0,0,1,.085-.057,2.164,2.164,0,0,1,1.882-.508c.086.032.15.062.207.09A14.721,14.721,0,0,1,19.5,3.3a.537.537,0,0,1,.118.211,2.283,2.283,0,0,1-.175,1.965.139.139,0,0,1-.057.09,1.116,1.116,0,0,0,.032,1.1.031.031,0,0,0,.022.028l.159.265c.065.108.128.214.2.332a.029.029,0,0,0,.029.033,1.087,1.087,0,0,0,.923.565h.117l.084,0a2.106,2.106,0,0,1,1.648.8.959.959,0,0,1,.117.212A10.212,10.212,0,0,1,23,10.575a.608.608,0,0,1-.032.23,2.146,2.146,0,0,1-1.341,1.338.137.137,0,0,1-.1.044l-.026,0a.976.976,0,0,0-.676.85v.025a5.116,5.116,0,0,1-.118.69v.034a1.017,1.017,0,0,0,.355.92c.028.032.057.062.085.09a2.252,2.252,0,0,1,.821,1.7.538.538,0,0,1-.058.229,8.539,8.539,0,0,1-.881,1.522l-.179.179a2.155,2.155,0,0,1-1.04.269h-.021a2.151,2.151,0,0,1-.41-.041,2.574,2.574,0,0,1-.387-.107.672.672,0,0,0-.118-.032.48.48,0,0,0-.1-.032.946.946,0,0,0-.246-.032h-.017a1.035,1.035,0,0,0-.7.269h-.032a4.308,4.308,0,0,1-.529.46.032.032,0,0,0-.023-.01.035.035,0,0,0-.031.022.031.031,0,0,0,.008.035,1.062,1.062,0,0,0-.414.981.374.374,0,0,1,.032.18,2.177,2.177,0,0,1,.041.418,2.046,2.046,0,0,1-.481,1.337.541.541,0,0,1-.208.148,16.056,16.056,0,0,1-1.674.628c.012.021.015.036.01.045s-.038.016-.058.016H14.34a2.128,2.128,0,0,1-1.468-1.1.573.573,0,0,0-.058-.089,1.051,1.051,0,0,0-.915-.533h-.764c-.026,0-.052,0-.077,0a.961.961,0,0,0-.865.536.651.651,0,0,1-.058.089,2.128,2.128,0,0,1-1.468,1.1A.382.382,0,0,1,8.535,23ZM11.5,7h-.024A4.5,4.5,0,0,0,7,11.53a4.524,4.524,0,0,0,1.342,3.175A4.471,4.471,0,0,0,11.5,16h.037A4.5,4.5,0,0,0,11.5,7Z"
          transform="translate(0 0)" fill="#5276F8"/>
</svg>
