<svg width="13" height="15" viewBox="0 0 13 15" fill="none" xmlns="http://www.w3.org/2000/svg">
<path fill-rule="evenodd" clip-rule="evenodd" d="M4.50709 10.8755C4.7336 10.8755 4.91809 10.6774 4.92136 10.4311V6.81139C4.92136 6.56256 4.73593 6.36097 4.50709 6.36097C4.27823 6.36097 4.09234 6.56257 4.09234 6.81139V10.4311C4.09561 10.6774 4.28009 10.8755 4.50709 10.8755Z" fill="#F57171" stroke="#EA7575" stroke-width="0.5"/>
<path fill-rule="evenodd" clip-rule="evenodd" d="M6.5 10.8755C6.72652 10.8755 6.91147 10.6774 6.91427 10.4311V6.81139C6.91427 6.56256 6.72885 6.36097 6.5 6.36097C6.27115 6.36097 6.08573 6.56257 6.08573 6.81139V10.4311C6.08853 10.6774 6.27348 10.8755 6.5 10.8755Z" fill="#F57171" stroke="#EA7575" stroke-width="0.5"/>
<path fill-rule="evenodd" clip-rule="evenodd" d="M8.49291 10.8755C8.7199 10.8755 8.90438 10.6774 8.90766 10.4311V6.81139C8.90766 6.56256 8.72177 6.36097 8.49291 6.36097C8.26405 6.36097 8.07864 6.56257 8.07864 6.81139V10.4311C8.08191 10.6774 8.2664 10.8755 8.49291 10.8755Z" fill="#F57171" stroke="#EA7575" stroke-width="0.5"/>
<path fill-rule="evenodd" clip-rule="evenodd" d="M11.4825 3.18153H8.83057L8.48915 1.93891C8.33408 1.38438 7.86564 1.00403 7.33272 0.999961H5.66909C5.13619 1.00402 4.66773 1.38437 4.51267 1.93891L4.17172 3.18153H1.51749C1.28863 3.18153 1.10274 3.38364 1.10274 3.63247C1.10274 3.88131 1.28863 4.0829 1.51749 4.0829H2.0107V12.7574C2.0149 13.4409 2.52539 13.9924 3.15357 13.9939H9.85951C10.4905 13.9924 11.0015 13.4369 11.0028 12.7508V4.06823H11.483H11.4825C11.7114 4.06823 11.8973 3.86663 11.8973 3.61781C11.8968 3.49949 11.8524 3.38676 11.7744 3.305C11.6964 3.22274 11.5913 3.17856 11.4825 3.18161L11.4825 3.18153ZM5.31415 2.19638L5.31462 2.19689C5.36272 2.02626 5.50518 1.90743 5.66911 1.90134H7.34445C7.51259 1.89982 7.66064 2.02169 7.70455 2.19893L7.97077 3.18205L5.02743 3.18154L5.31415 2.19638ZM10.1739 12.8492H10.1449C10.101 12.9874 9.98239 13.0808 9.84834 13.0838H3.15365C2.97897 13.0808 2.83885 12.9264 2.83792 12.736V4.0681H10.1738L10.1739 12.8492Z" fill="#F57171"/>
<path d="M11.4825 3.18153L11.7325 3.18469L11.7357 2.93153H11.4825V3.18153ZM8.83057 3.18153L8.5895 3.24776L8.63999 3.43153H8.83057V3.18153ZM8.48915 1.93891L8.73022 1.87268L8.72991 1.87159L8.48915 1.93891ZM7.33272 0.999961L7.33463 0.749961H7.33272V0.999961ZM5.66909 0.999961L5.66909 0.749954L5.66719 0.749968L5.66909 0.999961ZM4.51267 1.93891L4.2719 1.87159L4.27158 1.87276L4.51267 1.93891ZM4.17172 3.18153V3.43153H4.36236L4.41281 3.24768L4.17172 3.18153ZM2.0107 4.0829H2.2607V3.8329H2.0107V4.0829ZM2.0107 12.7574L1.76069 12.7574L1.7607 12.7589L2.0107 12.7574ZM3.15357 13.9939L3.15297 14.2439H3.15357V13.9939ZM9.85951 13.9939V14.2439L9.86011 14.2439L9.85951 13.9939ZM11.0028 12.7508L11.2528 12.7513V12.7508H11.0028ZM11.0028 4.06823V3.81823H10.7528V4.06823H11.0028ZM11.8973 3.61781L12.1473 3.61781L12.1473 3.61682L11.8973 3.61781ZM11.7744 3.305L11.593 3.47701L11.5935 3.47757L11.7744 3.305ZM11.4825 3.18161L11.2325 3.17844L11.2292 3.4388L11.4895 3.43151L11.4825 3.18161ZM5.31415 2.19638L5.49837 2.02737L5.1982 1.70016L5.07411 2.12652L5.31415 2.19638ZM5.31462 2.19689L5.1304 2.36589L5.43355 2.69634L5.55524 2.26473L5.31462 2.19689ZM5.66911 1.90134L5.66911 1.65117L5.65983 1.65152L5.66911 1.90134ZM7.34445 1.90134L7.34445 2.15135L7.34672 2.15133L7.34445 1.90134ZM7.70455 2.19893L7.46183 2.25905L7.46324 2.26427L7.70455 2.19893ZM7.97077 3.18205L7.97073 3.43205L8.29749 3.43211L8.21208 3.11671L7.97077 3.18205ZM5.02743 3.18154L4.78739 3.11168L4.69432 3.43149L5.02739 3.43154L5.02743 3.18154ZM10.1739 12.8492V13.0992H10.4239L10.4239 12.8492L10.1739 12.8492ZM10.1449 12.8492V12.5992H9.96206L9.90667 12.7735L10.1449 12.8492ZM9.84834 13.0838V13.3339L9.85404 13.3338L9.84834 13.0838ZM3.15365 13.0838L3.14929 13.3338H3.15365V13.0838ZM2.83792 12.736L2.58792 12.736L2.58792 12.7372L2.83792 12.736ZM2.83792 4.0681V3.8181H2.58792V4.0681H2.83792ZM10.1738 4.0681L10.4238 4.0681L10.4238 3.8181H10.1738V4.0681ZM11.4825 2.93153H8.83057V3.43153H11.4825V2.93153ZM9.07163 3.1153L8.73021 1.87268L8.24808 2.00515L8.5895 3.24776L9.07163 3.1153ZM8.72991 1.87159C8.54817 1.22166 7.99088 0.754979 7.33463 0.749968L7.33082 1.24995C7.74039 1.25308 8.12 1.54711 8.24838 2.00624L8.72991 1.87159ZM7.33272 0.749961H5.66909V1.24996H7.33272V0.749961ZM5.66719 0.749968C5.01095 0.754971 4.45365 1.22164 4.27191 1.87159L4.75344 2.00624C4.88182 1.5471 5.26143 1.25308 5.671 1.24995L5.66719 0.749968ZM4.27158 1.87276L3.93063 3.11538L4.41281 3.24768L4.75376 2.00506L4.27158 1.87276ZM4.17172 2.93153H1.51749V3.43153H4.17172V2.93153ZM1.51749 2.93153C1.13128 2.93153 0.852742 3.26567 0.852742 3.63247H1.35274C1.35274 3.50161 1.44598 3.43153 1.51749 3.43153V2.93153ZM0.852742 3.63247C0.852742 3.99966 1.13164 4.3329 1.51749 4.3329V3.8329C1.44562 3.8329 1.35274 3.76295 1.35274 3.63247H0.852742ZM1.51749 4.3329H2.0107V3.8329H1.51749V4.3329ZM1.7607 4.0829V12.7574H2.2607V4.0829H1.7607ZM1.7607 12.7589C1.76563 13.5601 2.36872 14.242 3.15297 14.2439L3.15418 13.7439C2.68206 13.7428 2.26417 13.3218 2.26069 12.7559L1.7607 12.7589ZM3.15357 14.2439H9.85951V13.7439H3.15357V14.2439ZM9.86011 14.2439C10.6479 14.242 11.2512 13.555 11.2528 12.7513L10.7529 12.7503C10.7517 13.3187 10.3331 13.7428 9.8589 13.7439L9.86011 14.2439ZM11.2528 12.7508V4.06823H10.7528V12.7508H11.2528ZM11.0028 4.31823H11.483V3.81823H11.0028V4.31823ZM11.483 3.81823H11.4825V4.31823H11.483V3.81823ZM11.4825 4.31823C11.8684 4.31823 12.1473 3.98498 12.1473 3.61781H11.6473C11.6473 3.74828 11.5544 3.81823 11.4825 3.81823V4.31823ZM12.1473 3.61682C12.1465 3.43766 12.0795 3.26264 11.9553 3.13244L11.5935 3.47757C11.6253 3.51089 11.647 3.56132 11.6473 3.6188L12.1473 3.61682ZM11.9558 3.133C11.8308 3.00115 11.6581 2.92659 11.4755 2.9317L11.4895 3.43151C11.5246 3.43052 11.562 3.44432 11.593 3.47701L11.9558 3.133ZM11.7325 3.18477L11.7325 3.18469L11.2325 3.17837L11.2325 3.17844L11.7325 3.18477ZM5.12993 2.36538L5.1304 2.36589L5.49884 2.02788L5.49837 2.02737L5.12993 2.36538ZM5.55524 2.26473C5.57715 2.18701 5.63441 2.1528 5.67838 2.15117L5.65983 1.65152C5.37596 1.66205 5.1483 1.86551 5.074 2.12905L5.55524 2.26473ZM5.66911 2.15134H7.34445V1.65134H5.66911V2.15134ZM7.34672 2.15133C7.38634 2.15097 7.44263 2.18131 7.46188 2.25904L7.94721 2.13881C7.87866 1.86208 7.63883 1.64867 7.34219 1.65135L7.34672 2.15133ZM7.46324 2.26427L7.72946 3.2474L8.21208 3.11671L7.94586 2.13358L7.46324 2.26427ZM7.97081 2.93205L5.02748 2.93154L5.02739 3.43154L7.97073 3.43205L7.97081 2.93205ZM5.26748 3.2514L5.55419 2.26624L5.07411 2.12652L4.78739 3.11168L5.26748 3.2514ZM10.1739 12.5992H10.1449V13.0992H10.1739V12.5992ZM9.90667 12.7735C9.89187 12.8201 9.85957 12.8335 9.84264 12.8339L9.85404 13.3338C10.1052 13.328 10.3102 13.1546 10.3832 12.925L9.90667 12.7735ZM9.84834 12.8338H3.15365V13.3338H9.84834V12.8338ZM3.15801 12.8339C3.14571 12.8337 3.1306 12.8285 3.11575 12.8122C3.10058 12.7954 3.08809 12.7688 3.08792 12.7348L2.58792 12.7372C2.58942 13.0435 2.81954 13.328 3.14929 13.3338L3.15801 12.8339ZM3.08792 12.736V4.0681H2.58792V12.736H3.08792ZM2.83792 4.3181H10.1738V3.8181H2.83792V4.3181ZM9.92385 4.0681L9.92388 12.8492L10.4239 12.8492L10.4238 4.0681L9.92385 4.0681Z" fill="#EA7575"/>
</svg>
