<svg width="9" height="13" viewBox="0 0 9 13" fill="none" xmlns="http://www.w3.org/2000/svg">
<path fill-rule="evenodd" clip-rule="evenodd" d="M4.98714 8.79331L7.80388 6.02366H7.80374C8.0635 5.76824 8.0635 5.35137 7.81509 5.09184C7.55176 4.83643 7.12718 4.83643 6.86743 5.09184L5.17457 6.7564V0.657617C5.17457 0.473244 5.10232 0.311775 4.97991 0.191408C4.85749 0.0751563 4.68909 0 4.50577 0C4.13913 0 3.83697 0.297108 3.83697 0.657617L3.83518 6.7558L2.14232 5.09124C1.87899 4.83583 1.45442 4.83583 1.19466 5.09124C1.06509 5.21924 1 5.38834 1 5.55745C1 5.72655 1.06449 5.89566 1.19466 6.02366L4.01141 8.79331L4.02693 8.80858C4.13024 8.91016 4.26042 8.97416 4.39776 8.99295C4.40381 8.99295 4.4097 8.99386 4.41552 8.99475C4.42119 8.99562 4.42679 8.99648 4.43239 8.99648L4.49748 9C4.52017 9 4.54346 9 4.56615 8.99648C4.5722 8.99648 4.57809 8.99557 4.58391 8.99468C4.58959 8.99381 4.59519 8.99295 4.60079 8.99295C4.73455 8.97416 4.86831 8.91016 4.97161 8.80858C4.97291 8.80731 4.97455 8.80609 4.97631 8.80478C4.98021 8.80189 4.98467 8.79858 4.98714 8.79331ZM8 12.25H1C0.585786 12.25 0.25 11.9142 0.25 11.5C0.25 11.0858 0.585786 10.75 1 10.75H8C8.41421 10.75 8.75 11.0858 8.75 11.5C8.75 11.9142 8.41421 12.25 8 12.25Z" fill="#5379F0"/>
</svg>
