<svg xmlns="http://www.w3.org/2000/svg" width="14.848" height="8.783" viewBox="0 0 14.848 8.783">
  <g id="Group_3" data-name="Group 3" transform="translate(-0.07 -0.108)">
    <path id="Fill_1" data-name="Fill 1" d="M7.43,8.783A8.465,8.465,0,0,1,2.368,6.85,13.808,13.808,0,0,1,.123,4.725L.117,4.717a.511.511,0,0,1,0-.652l.008-.01C.684,3.378,3.664,0,7.43,0s6.746,3.378,7.305,4.056l.008.01a.561.561,0,0,1,0,.653l-.035.041C13.9,5.7,10.988,8.783,7.43,8.783Zm0-7.309a2.917,2.917,0,1,0,2.938,2.917A2.931,2.931,0,0,0,7.43,1.474Z" transform="translate(0.07 0.108)" fill="#cacdd7"/>
    <path id="Fill_2" data-name="Fill 2" d="M3.562,1.769A1.781,1.781,0,1,1,1.781,0,1.774,1.774,0,0,1,3.562,1.769" transform="translate(5.719 2.731)" fill="#cacdd7"/>
  </g>
</svg>
