<svg width="11" height="14" viewBox="0 0 11 14" fill="none" xmlns="http://www.w3.org/2000/svg">
<path fill-rule="evenodd" clip-rule="evenodd" d="M9.59091 13H1.40909C1.16364 13 1 12.84 1 12.6V1.4C1 1.16 1.16364 1 1.40909 1H6.31818C6.44091 1 6.52273 1.04 6.60455 1.12L9.87727 4.32C9.95909 4.4 10 4.48 10 4.6V12.6C10 12.84 9.83636 13 9.59091 13ZM1.81818 12.2H9.18182V5H6.31818C6.07273 5 5.90909 4.84 5.90909 4.6V1.8H1.81818V12.2ZM6.72727 4.2H8.60909L6.72727 2.36V4.2Z" fill="#5379F0"/>
<path d="M6.60455 1.12L6.77933 0.941248L6.77933 0.941248L6.60455 1.12ZM9.87727 4.32L9.70249 4.49875L9.70249 4.49875L9.87727 4.32ZM1.81818 12.2H1.56818V12.45H1.81818V12.2ZM9.18182 12.2V12.45H9.43182V12.2H9.18182ZM9.18182 5H9.43182V4.75H9.18182V5ZM5.90909 1.8H6.15909V1.55H5.90909V1.8ZM1.81818 1.8V1.55H1.56818V1.8H1.81818ZM6.72727 4.2H6.47727V4.45H6.72727V4.2ZM8.60909 4.2V4.45H9.22237L8.78387 4.02125L8.60909 4.2ZM6.72727 2.36L6.90205 2.18125L6.47727 1.76591V2.36H6.72727ZM9.59091 12.75H1.40909V13.25H9.59091V12.75ZM1.40909 12.75C1.34151 12.75 1.30535 12.7289 1.28728 12.7112C1.26971 12.6941 1.25 12.6615 1.25 12.6H0.75C0.75 12.7785 0.812107 12.9459 0.937721 13.0688C1.06283 13.1911 1.23122 13.25 1.40909 13.25V12.75ZM1.25 12.6V1.4H0.75V12.6H1.25ZM1.25 1.4C1.25 1.33852 1.26971 1.30593 1.28728 1.28875C1.30535 1.27108 1.34151 1.25 1.40909 1.25V0.75C1.23122 0.75 1.06283 0.808917 0.937721 0.931248C0.812107 1.05407 0.75 1.22148 0.75 1.4H1.25ZM1.40909 1.25H6.31818V0.75H1.40909V1.25ZM6.31818 1.25C6.36758 1.25 6.38861 1.25851 6.42977 1.29875L6.77933 0.941248C6.65684 0.821489 6.51424 0.75 6.31818 0.75V1.25ZM6.42977 1.29875L9.70249 4.49875L10.0521 4.14125L6.77933 0.941248L6.42977 1.29875ZM9.70249 4.49875C9.72856 4.52424 9.73769 4.53957 9.74173 4.54845C9.74519 4.55608 9.75 4.5699 9.75 4.6H10.25C10.25 4.5101 10.2344 4.42392 10.1969 4.34155C10.16 4.26043 10.1078 4.19576 10.0521 4.14125L9.70249 4.49875ZM9.75 4.6V12.6H10.25V4.6H9.75ZM9.75 12.6C9.75 12.6615 9.73029 12.6941 9.71272 12.7112C9.69465 12.7289 9.65849 12.75 9.59091 12.75V13.25C9.76878 13.25 9.93717 13.1911 10.0623 13.0688C10.1879 12.9459 10.25 12.7785 10.25 12.6H9.75ZM1.81818 12.45H9.18182V11.95H1.81818V12.45ZM9.43182 12.2V5H8.93182V12.2H9.43182ZM9.18182 4.75H6.31818V5.25H9.18182V4.75ZM6.31818 4.75C6.2506 4.75 6.21444 4.72892 6.19637 4.71125C6.1788 4.69407 6.15909 4.66148 6.15909 4.6H5.65909C5.65909 4.77852 5.7212 4.94593 5.84681 5.06875C5.97192 5.19108 6.14031 5.25 6.31818 5.25V4.75ZM6.15909 4.6V1.8H5.65909V4.6H6.15909ZM5.90909 1.55H1.81818V2.05H5.90909V1.55ZM1.56818 1.8V12.2H2.06818V1.8H1.56818ZM6.72727 4.45H8.60909V3.95H6.72727V4.45ZM8.78387 4.02125L6.90205 2.18125L6.55249 2.53875L8.43431 4.37875L8.78387 4.02125ZM6.47727 2.36V4.2H6.97727V2.36H6.47727Z" fill="#5379F0"/>
</svg>
