<svg xmlns="http://www.w3.org/2000/svg" width="16" height="14" viewBox="0 0 16 14">
  <path id="Fill_1" data-name="Fill 1" d="M16,4.1V5.379a.5.5,0,0,0-.029.088,4.83,4.83,0,0,1-.432,1.476A10.066,10.066,0,0,1,13.6,9.678,27.105,27.105,0,0,1,8.128,13.96a.2.2,0,0,1-.239,0,28.916,28.916,0,0,1-4.48-3.308A13.984,13.984,0,0,1,.846,7.641a5.452,5.452,0,0,1-.7-4.185A4.483,4.483,0,0,1,7.4,1.064c.214.184.4.4.617.611a.715.715,0,0,1,.043-.064A4.339,4.339,0,0,1,12.224.073a4.339,4.339,0,0,1,3.585,3.142A8.145,8.145,0,0,1,16,4.1Z" transform="translate(0)" fill="#cacdd7"/>
</svg>
