<svg xmlns="http://www.w3.org/2000/svg" xmlns:xlink="http://www.w3.org/1999/xlink" width="32" height="26.055" viewBox="0 0 32 26.055">
  <defs>
    <clipPath id="clip-path">
      <path id="Clip_2" data-name="Clip 2" d="M0,0H32V25.192H0Z" transform="translate(0 0.018)" fill="none"/>
    </clipPath>
    <clipPath id="clip-path-2">
      <path id="Clip_5" data-name="Clip 5" d="M0,0H6.461V21.811H0Z" transform="translate(0.083 0)" fill="none"/>
    </clipPath>
    <clipPath id="clip-path-3">
      <path id="Clip_8" data-name="Clip 8" d="M0,0H4.08V20.816H0Z" transform="translate(0.065 0.082)" fill="none"/>
    </clipPath>
  </defs>
  <g id="Group_23" data-name="Group 23" transform="translate(0 0)">
    <g id="Group_3" data-name="Group 3" transform="translate(0 0.845)">
      <path id="Clip_2-2" data-name="Clip 2" d="M0,0H32V25.192H0Z" transform="translate(0 0.018)" fill="none"/>
      <g id="Group_3-2" data-name="Group 3" clip-path="url(#clip-path)">
        <path id="Fill_1" data-name="Fill 1" d="M31.222.031h-.007l-11.7,3.3a2.419,2.419,0,0,0-1.22.822.966.966,0,0,1-.486.335H14.2a.967.967,0,0,1-.486-.335,2.419,2.419,0,0,0-1.22-.822L.785.032H.778A.565.565,0,0,0,0,.578V19.753a1.1,1.1,0,0,0,.778.985l11.711,3.3a2.421,2.421,0,0,1,1.22.822.969.969,0,0,0,.486.335H17.8a.968.968,0,0,0,.486-.335,2.421,2.421,0,0,1,1.22-.822l11.711-3.3A1.1,1.1,0,0,0,32,19.753V.578a.565.565,0,0,0-.778-.547" transform="translate(0 0.018)" fill="#86bbfd"/>
        <path id="Fill_1-2" data-name="Fill 1" d="M13.41.032l-11.7,3.3a2.419,2.419,0,0,0-1.22.822A.966.966,0,0,1,0,4.484V25.192a.968.968,0,0,0,.486-.335,2.421,2.421,0,0,1,1.22-.822l11.711-3.3a1.1,1.1,0,0,0,.778-.985V.578a.565.565,0,0,0-.778-.547Z" transform="translate(17.805 0.018)" fill="#608fff"/>
      </g>
    </g>
    <g id="Group_6" data-name="Group 6" transform="translate(12.8 4.245)">
      <path id="Clip_5-2" data-name="Clip 5" d="M0,0H6.461V21.811H0Z" transform="translate(0.083 0)" fill="none"/>
    </g>
    <g id="Group_9" data-name="Group 9" transform="translate(13.895 5.157)">
      <path id="Clip_8-2" data-name="Clip 8" d="M0,0H4.08V20.816H0Z" transform="translate(0.065 0.082)" fill="none"/>
      <g id="Group_9-2" data-name="Group 9" clip-path="url(#clip-path-3)">
        <path id="Fill_7" data-name="Fill 7" d="M4.08,0a.875.875,0,0,1-.235.108H.235A.875.875,0,0,1,0,0V20.708a.885.885,0,0,0,.235.108h3.61a.885.885,0,0,0,.235-.108Z" transform="translate(0.065 0.082)" fill="#86bbfd"/>
      </g>
    </g>
    <path id="Fill_10" data-name="Fill 10" d="M.735,7.978l6.77-1.852A.658.658,0,0,0,8,5.5V.553A.572.572,0,0,0,7.265.022L.495,1.874A.658.658,0,0,0,0,2.5V7.447a.572.572,0,0,0,.735.532" transform="translate(21 6)" fill="#fff"/>
    <path id="Fill_21" data-name="Fill 21" d="M1.778,5.347a.967.967,0,0,0,.486-.335,2.419,2.419,0,0,1,1.22-.822l11-3.1L11.828,0,2.723,2.34A3.862,3.862,0,0,0,0,5.347Z" transform="translate(16.027 0)" fill="#e2e7fa"/>
    <path id="Fill_22" data-name="Fill 22" d="M11.047,4.19a2.419,2.419,0,0,1,1.22.822.967.967,0,0,0,.486.335h1.7A3.863,3.863,0,0,0,11.736,2.34L2.63,0,0,1.079Z" transform="translate(1.442 0)" fill="#e2e7fa"/>
  </g>
</svg>
