<svg id="Group_3" data-name="Group 3" xmlns="http://www.w3.org/2000/svg" width="12" height="13" viewBox="0 0 12 13">
  <path id="Fill_1" data-name="Fill 1" d="M0,.527A.554.554,0,0,1,.542,0H4.466A.552.552,0,0,1,5,.527V12.473A.552.552,0,0,1,4.466,13H.542a.527.527,0,1,1,0-1.054H3.931V1.054H.542A.544.544,0,0,1,0,.527Z" transform="translate(7)" fill="#5276f8"/>
  <path id="Fill_2" data-name="Fill 2" d="M0,3.5a.606.606,0,0,1,.135-.361L2.8.163A.553.553,0,0,1,3.531.119a.567.567,0,0,1-.005.766L1.651,2.974H8.5a.526.526,0,0,1,0,1.05H1.651L3.526,6.113a.6.6,0,0,1,.005.766A.546.546,0,0,1,2.8,6.835L.135,3.86A.521.521,0,0,1,0,3.5Z" transform="translate(0 3)" fill="#5276f8"/>
</svg>
