<svg xmlns="http://www.w3.org/2000/svg" width="7" height="9" viewBox="0 0 7 9">
  <path id="Fill_1" data-name="Fill 1" d="M-6.434,9H-.566A.566.566,0,0,0,0,8.435V3.8a.566.566,0,0,0-.566-.565h-.5V1.9A1.891,1.891,0,0,0-1.629.558,1.917,1.917,0,0,0-2.975,0H-4.025A1.921,1.921,0,0,0-5.371.558,1.891,1.891,0,0,0-5.929,1.9V3.236h-.5A.566.566,0,0,0-7,3.8V8.435A.566.566,0,0,0-6.434,9ZM-4.1,1H-2.9a.831.831,0,0,1,.9.742V3H-5L-5,1.741a.691.691,0,0,1,.264-.526A1.012,1.012,0,0,1-4.1,1Z" transform="translate(7)" fill="#d0021b"/>
</svg>
