<svg width="16" height="11" viewBox="0 0 16 11" fill="none" xmlns="http://www.w3.org/2000/svg">
<path fill-rule="evenodd" clip-rule="evenodd" d="M1.6087 1C1.27938 1 1 1.27539 1 1.6V9.4C1 9.72461 1.27938 10 1.6087 10H14.3913C14.7206 10 15 9.72461 15 9.4V1.6C15 1.27539 14.7206 1 14.3913 1H1.6087ZM2.64062 1.9H13.3594L8.00003 6.55L2.64062 1.9ZM1.91304 2.4625L7.70037 7.4875C7.87216 7.63457 8.12777 7.63457 8.29955 7.4875L14.0869 2.4625V9.1H1.91297L1.91304 2.4625Z" fill="#5379F0"/>
<path d="M2.64062 1.9V1.65H1.971L2.47678 2.08883L2.64062 1.9ZM13.3594 1.9L13.5233 2.08883L14.0291 1.65H13.3594V1.9ZM8.00003 6.55L7.83619 6.73883L8.00003 6.88098L8.16387 6.73883L8.00003 6.55ZM1.91304 2.4625L2.07695 2.27373L1.66305 1.91435L1.66304 2.4625L1.91304 2.4625ZM7.70037 7.4875L7.53646 7.67628L7.53778 7.67741L7.70037 7.4875ZM8.29955 7.4875L8.46214 7.67742L8.46346 7.67627L8.29955 7.4875ZM14.0869 2.4625H14.3369V1.91434L13.923 2.27373L14.0869 2.4625ZM14.0869 9.1V9.35H14.3369V9.1H14.0869ZM1.91297 9.1L1.66297 9.1L1.66296 9.35H1.91297V9.1ZM1.6087 0.75C1.14471 0.75 0.75 1.13393 0.75 1.6H1.25C1.25 1.41684 1.41404 1.25 1.6087 1.25V0.75ZM0.75 1.6V9.4H1.25V1.6H0.75ZM0.75 9.4C0.75 9.86606 1.14471 10.25 1.6087 10.25V9.75C1.41404 9.75 1.25 9.58316 1.25 9.4H0.75ZM1.6087 10.25H14.3913V9.75H1.6087V10.25ZM14.3913 10.25C14.8553 10.25 15.25 9.86606 15.25 9.4H14.75C14.75 9.58316 14.586 9.75 14.3913 9.75V10.25ZM15.25 9.4V1.6H14.75V9.4H15.25ZM15.25 1.6C15.25 1.13393 14.8553 0.75 14.3913 0.75V1.25C14.586 1.25 14.75 1.41684 14.75 1.6H15.25ZM14.3913 0.75H1.6087V1.25H14.3913V0.75ZM2.64062 2.15H13.3594V1.65H2.64062V2.15ZM13.1956 1.71117L7.83619 6.36117L8.16387 6.73883L13.5233 2.08883L13.1956 1.71117ZM8.16387 6.36117L2.80445 1.71117L2.47678 2.08883L7.83619 6.73883L8.16387 6.36117ZM1.74914 2.65127L7.53646 7.67627L7.86428 7.29873L2.07695 2.27373L1.74914 2.65127ZM7.53778 7.67741C7.80316 7.9046 8.19677 7.9046 8.46214 7.67741L8.13697 7.29759C8.05876 7.36454 7.94116 7.36454 7.86295 7.29759L7.53778 7.67741ZM8.46346 7.67627L14.2508 2.65127L13.923 2.27373L8.13565 7.29873L8.46346 7.67627ZM13.8369 2.4625V9.1H14.3369V2.4625H13.8369ZM14.0869 8.85H1.91297V9.35H14.0869V8.85ZM2.16297 9.1L2.16304 2.4625L1.66304 2.4625L1.66297 9.1L2.16297 9.1Z" fill="#5379F0"/>
</svg>
