<svg id="Component_1_1" data-name="Component 1 – 1" xmlns="http://www.w3.org/2000/svg" xmlns:xlink="http://www.w3.org/1999/xlink" width="1080" height="469" viewBox="0 0 1080 469">
  <defs>
    <linearGradient id="linear-gradient" x1="0.933" y1="0.928" x2="0.051" y2="0.112" gradientUnits="objectBoundingBox">
      <stop offset="0" stop-color="#767ddc"/>
      <stop offset="1" stop-color="#9742b7"/>
    </linearGradient>
    <clipPath id="clip-path">
      <rect id="Rectangle" width="1080" height="469" rx="14" transform="translate(-540 -446)" fill="url(#linear-gradient)"/>
    </clipPath>
    <clipPath id="clip-path-2">
      <path id="Clip_78" data-name="Clip 78" d="M0,0H61.333V47.01H0Z" transform="translate(0 0.183)" fill="none"/>
    </clipPath>
    <clipPath id="clip-path-3">
      <path id="Clip_132" data-name="Clip 132" d="M17.358,4.124s-.029.014-.081.041h0c-.052.027-.08.043-.08.043h0S-10.556,17.331,4.451,46.494h0s4.805,11.3,19.1,15.435h0a19.51,19.51,0,0,1,2.434.908h0C29.616,64.442,38.923,69,40.563,73.306h0s3.138.952,10.642-3.021h0l.06-.031h0l.06-.033h0c7.515-3.951,8.543-7.1,8.543-7.1h0c-2.541-3.828-.9-14.166-.115-18.1h0a19.887,19.887,0,0,1,.661-2.542h0c4.848-14.234-1.541-24.7-1.541-24.7h0C51.608,3.644,41.638,0,33.289,0h0a34.871,34.871,0,0,0-15.93,4.124" transform="translate(0.348 0.01)" fill="none"/>
    </clipPath>
  </defs>
  <g id="Mask_Group_1" data-name="Mask Group 1" transform="translate(540 446)" clip-path="url(#clip-path)">
    <g id="Group_153" data-name="Group 153" transform="translate(35 -316)">
      <g id="Group_130" data-name="Group 130">
        <path id="Fill_1" data-name="Fill 1" d="M56.908,122.459c-14.031-.032-39.849-17.166-45.61-24.781C-4.929,76.227-3.816,45.861,15.544,26.269,35.339,6.235,65.714.192,93.738.109c20.229-.06,42.36-1.24,61.549,5.856,23.548,8.708,26.157,41.349,19.652,61.024-11.056,33.435-48.62,29.94-79.611,28.52-14.767-.677-46.51-1.309-38.42,26.95" transform="translate(258.286 0.134)" fill="#00c1c7"/>
        <path id="Fill_5" data-name="Fill 5" d="M.925,0,0,18.278l72.83.2-3.141-10.4Z" transform="translate(259.19 304.802)" fill="#005892"/>
        <path id="Fill_7" data-name="Fill 7" d="M19.112,0S8.248-.412,10.346,15.964c0,0,1.418,23.1.335,26.339,0,0-3.848,8.127-10.681,12.029,0,0,1.293,14.805,13.592,18.584,0,0,7.28-6.506,7.762-14.362L21.007,38s-9.3-32.763-1.9-38" transform="translate(252.919 189.28)" fill="#ffdb67"/>
        <path id="Fill_9" data-name="Fill 9" d="M3.711.474A10.958,10.958,0,0,0,0,7.021S1.256,19.495,12.124,25.4a4,4,0,0,0,5.184-1.262,11.334,11.334,0,0,0,1.97-7.562S9.933,12,7.106,1.58A2.128,2.128,0,0,0,3.711.474" transform="translate(252.919 236.59)" fill="#ffdb67"/>
        <path id="Fill_11" data-name="Fill 11" d="M60.463,46.425l-8.2,4.751a3.555,3.555,0,0,1-4.457-.734l-18.7-21.389L25.508,12.228,20.236,3.711a.9.9,0,0,0-1.617.15c-.467,1.366-.359,5.184,2.165,9.741L7.046.558a2.278,2.278,0,0,0-3.432.522L.872,5.524a5.856,5.856,0,0,0,.405,6.726L12.094,25.817,24.446,37.274,41.771,68.457a9.282,9.282,0,0,0,12.57,3.625l15.939-8.73s-7.434-3.493-9.817-16.927" transform="translate(192.456 197.186)" fill="#f0b8b0"/>
        <path id="Fill_13" data-name="Fill 13" d="M42.318,0S62.83,8.234,65.854,11c0,0,12.713,22.746,3.528,116.05,0,0-31.609,15.27-69.382-6.282,0,0,15.361-30.7,11.188-74.456,0,0-6.554-35.564.942-40.973l5.132-2.459Z" transform="translate(259.901 183.94)" fill="#ffa700"/>
        <path id="Fill_15" data-name="Fill 15" d="M37.975,17.327c.646,6.729-.382,14.7-6.88,20.119l1.987,17.218c-2.023,7.2-8.551,11.649-14.777,10.878-6.813-.844-10.071-7.551-10.279-8,0,0,4.116-2.681,2.9-8.689A1.749,1.749,0,0,0,9.64,47.534C6.866,46.8-.715,42.61.055,18.88a17.7,17.7,0,0,1,2.484-8.538C4.979,6.277,9.557,1.02,17.194.125,27.661-1.1,36.969,6.856,37.975,17.327" transform="translate(269.135 129.276)" fill="#f0b8b0"/>
        <path id="Fill_19" data-name="Fill 19" d="M11.972,2.947c-.043-.13-5.966-6.286-11.7-.412A.9.9,0,0,0,.139,3.65c.437.639,1.786,1.4,5.813,1.18,0,0,6.583-.229,6.02-1.883" transform="translate(273.176 167.203)" fill="#f0b8b0"/>
        <path id="Fill_21" data-name="Fill 21" d="M29.762,12.644c-5.19,2.848-21.2,10.395-28.894-.017A4.349,4.349,0,0,1,.25,8.577,9.064,9.064,0,0,1,9.515,2.153S22.767,2.6,30.2.473A18.5,18.5,0,0,1,51.962,12.919s7.317,17.713-7.525,28.9a1.837,1.837,0,0,1-3.037-1.1c-.16-1.278,2.43-6.157,4.2-9.781a6.26,6.26,0,0,0,.3-4.984,4.755,4.755,0,0,0-1.145-1.788A2.72,2.72,0,0,0,40.414,25.2a11.346,11.346,0,0,0-.474,5.715l-3.178.4c-.99-3-5.609-11.25-5.491-17.78a1.015,1.015,0,0,0-1.509-.892" transform="translate(259.19 125.824)" fill="#005892"/>
        <path id="Fill_23" data-name="Fill 23" d="M77.781,0,37.831,3.194l-23.3,4.08S.5,13.237.11,15.485c0,0-1.672,2.395,8.05-1.532l10.47-1.2a29.333,29.333,0,0,0,3.1,5.692,2.639,2.639,0,0,0,3.256.745l13.9-6.821S83.74,17.4,95.225,15.844c0,0-9.347-13.215-17.444-15.844" transform="translate(224.88 266.954)" fill="#f0b8b0"/>
        <path id="Fill_25" data-name="Fill 25" d="M30.855,8.544S23.631-3.434,14.813.974A19.486,19.486,0,0,0,3.9,18.133C3.506,36.138,7.47,58.021,0,66.091c0,0,11.615,10.507,23.448,12.053,0,0,15.629-56.38,7.407-69.6" transform="translate(305.178 193.939)" fill="#ffdb67"/>
        <path id="Fill_27" data-name="Fill 27" d="M27.347,13.193s2.478,5.3-2.884,10.193a4.605,4.605,0,0,1-6.821-.752C14.358,18.083,8.277,10.618,2.3,8.37A3.382,3.382,0,0,1,.058,4.618C.4,2.878,1.548.9,4.806,0A43.4,43.4,0,0,0,27.347,13.193" transform="translate(301.278 258.891)" fill="#ffdb67"/>
        <path id="Fill_29" data-name="Fill 29" d="M0,125.821,45.268,6.864A10.663,10.663,0,0,1,55.238,0h74.42a3.83,3.83,0,0,1,3.6,5.15L88.791,125.821Z" transform="translate(345.879 215.313)" fill="#87c0d6"/>
        <path id="Fill_31" data-name="Fill 31" d="M1.011,3.364H89.326a1.013,1.013,0,0,0,1.011-1.009V1.009A1.013,1.013,0,0,0,89.326,0H1.011A1.013,1.013,0,0,0,0,1.009V2.355A1.013,1.013,0,0,0,1.011,3.364" transform="translate(344.385 339.791)" fill="#5374d5"/>
        <path id="Fill_33" data-name="Fill 33" d="M133.5,115.055,88.229,6.864A10.663,10.663,0,0,0,78.26,0H3.84a3.83,3.83,0,0,0-3.6,5.15L44.707,115.055Z" transform="translate(67.452 211.276)" fill="#87c0d6"/>
        <path id="Fill_35" data-name="Fill 35" d="M50.374,1.89l-.041.014H0L1.059.323A15.573,15.573,0,0,1,5.414.047C35.185.3,50.374,1.89,50.374,1.89" transform="translate(367.663 334.522)" fill="#5d199b"/>
        <path id="Fill_37" data-name="Fill 37" d="M84.27,39.732H0c4.791-6.1,10.112-9.42,20.9-16.148,12.809-6.729,19.63-8.984,26.292-12.111,1.231-.478-.436-4.569.8-5.046H48l1.57-.619L55.1,3.66,82.88.532,87.613,0c.937,2.4,2.791,5.719,4.2,9.4.007.007.007.007.007.013A26.14,26.14,0,0,1,93.654,17c.115,1.918.728,19.365-9.384,22.729" transform="translate(336.295 303.423)" fill="#532180"/>
        <path id="Fill_39" data-name="Fill 39" d="M.509,11.817C-1.257,19.5,1.852,27.426,5.564,34.38s8.173,13.771,9.417,21.551C17.255,70.166,8.443,85.62,14.7,98.613a20.308,20.308,0,0,0,15.556,11.177,19.794,19.794,0,0,0,17.664-7.307c7.753-9.971,3.99-24.237,5.3-36.792.4-3.88,1.332-7.773.811-11.64-.618-4.576-3.194-8.619-5.707-12.5C40.9,30.11,33.447,12.07,23.041,3.243,14.8-3.75,3.159,1.235.509,11.817" transform="translate(376.4 181.408)"/>
        <path id="Fill_41" data-name="Fill 41" d="M62.8,0S47.2,1.234,43.184,24.977A145.652,145.652,0,0,1,39.9,40.031l-2.716,19.78a7.256,7.256,0,0,1-4.745,4.939L0,75.3l3.917,6.79,39.73-5.62A6.684,6.684,0,0,0,49.24,71.3Z" transform="translate(332.02 232.93)" fill="#51a1ec"/>
        <path id="Fill_43" data-name="Fill 43" d="M50.946,97.024c2.743-12.777-6.791-29.744-6.252-35.54,1.693-18.207-.175-34.466-.44-41.313C44.093,16,43.359,11.5,40.48,8.476,28.7-3.9,15.762.929,15.762.929L12.783,3.708c-2.217,2.069-7.613,15.4-10.947,22.26a16.092,16.092,0,0,0-.46,12.883C9.822,60.017,0,85.416,0,85.416s19.2,18.91,50.946,11.608" transform="translate(379.057 232.001)" fill="#5374d5"/>
        <path id="Fill_45" data-name="Fill 45" d="M26.567,2.8S15.234-5.032.255,5.5L0,6.869l26.715-1.21Z" transform="translate(331.32 311.316)" fill="#e6b270"/>
        <path id="Fill_47" data-name="Fill 47" d="M54.249,2.034c2.623-1.965,6.084-3.059,10.068-.676a10.823,10.823,0,0,1,5.3,9.683l-.475,39.573c-.1,2.693-.709,11.421-1.956,13.859a15.24,15.24,0,0,1-11.994,7.838L1.44,74.519,0,65l44.491-4.917c3.342-.369,8.486-5.241,7.559-14L50.92,12.829c-.129-4.129-.152-8.187,3.328-10.8" transform="translate(354.104 242.564)" fill="#43aeec"/>
        <path id="Fill_49" data-name="Fill 49" d="M4.187,5.057c4.873-4.5,14.214-9.95,22.8,3.127A6.6,6.6,0,0,1,27.7,9.629c1.036,2.961,3.941,13.351-2.182,23.014a10.139,10.139,0,0,0-1.509,5.945,75.547,75.547,0,0,0,1.643,12.866,5.748,5.748,0,0,1-1.209,5.1c-3.214,3.7-7.656,4.546-10.716,3.477a4.929,4.929,0,0,1-3.386-3.08A4.672,4.672,0,0,1,11,52.866C12.089,51.3,13.757,47.5,13,39.477c0,0-14.668-5.513-12.841-26.139a12.818,12.818,0,0,1,4.029-8.28" transform="translate(383.265 183.39)" fill="#e6b270"/>
        <path id="Fill_51" data-name="Fill 51" d="M31.232,22.978c2.621,3.2.623,5.355,4,7.752,2.651,1.885,7.466.567,8.678,3.583.868,2.159-1.2,4.763-.145,6.837.776,1.523,3.017,2.178,3.187,3.878.222,2.191-2.9,2.8-4.616,4.191-2.39,1.939-1.84,5.926.154,8.267s4.954,3.58,7.59,5.171,5.212,3.937,5.459,7c.26,3.211-2.076,5.959-3.493,8.855a16.645,16.645,0,0,0-.141,14.12c1.385,2.977,3.733,6.01,2.839,9.169-1.036,3.655-5.85,5.075-7.212,8.622a6.566,6.566,0,0,0,1.133,6.181,11.63,11.63,0,0,0,5.366,3.639c1.863.678,4.184.974,5.625-.384,1.7-1.6,1.147-4.458,2.212-6.535,2.217-4.321,9.558-2.9,12.456-6.8,3.787-5.095-3.739-13.279.194-18.263,1.6-2.031,4.509-2.511,6.475-4.2a6.8,6.8,0,0,0,.111-9.81c-2.32-2.08-6.214-2.666-7.242-5.609-1.232-3.541.369-8.887-.541-12.9-1.438-6.344-4.681-11.594-5.176-18.388-.874-12.014-5.921-10.087-12.793-17.641-1.574-1.731-2.124-4.135-3.251-6.185-2.248-4.09-6.6-6.494-10.727-8.684C37.3,2.687,33.082.482,28.487.06S18.768,1.449,16.668,5.55c-1.04,2.029-1.257,4.415-2.394,6.392-1.753,3.046-5.267,4.508-8.33,6.24S-.221,22.709.012,26.214c.285,4.25,5.4,7.348,4.816,11.568-.408,2.94-3.58,5.508-2.544,8.29.936,2.516,4.484,2.757,6.352,4.685,2.687,2.773.84,7.372,1.476,11.177.837,5.017,7.385,9.369,11.668,6.615A13.789,13.789,0,0,0,28.1,53.308c-5.45-2.393-6.743-3.916-10.313-9.58-2.25-3.57-4.147-12.812-1.368-18.7,2.269-4.812,9.686-8.306,14.81-2.046" transform="translate(368.161 169.559)"/>
        <path id="Fill_53" data-name="Fill 53" d="M21.712.739S8.1-3.128.779,6.829c0,0-5.029,5.392,10.467.829,0,0,9.942-2.167,13.569-1.539Z" transform="translate(311.796 309.572)" fill="#e6b270"/>
        <path id="Fill_55" data-name="Fill 55" d="M2.482,5.621H71.359A2.487,2.487,0,0,0,73.84,3.144V2.477A2.487,2.487,0,0,0,71.359,0H2.482A2.487,2.487,0,0,0,0,2.477v.667A2.487,2.487,0,0,0,2.482,5.621" transform="translate(288.552 317.671)" fill="#8ec6e0"/>
        <path id="Fill_57" data-name="Fill 57" d="M22.714,85.159l-.651.154a2.49,2.49,0,0,1-2.986-1.841L.066,3.2A2.484,2.484,0,0,1,1.911.22l.65-.154A2.49,2.49,0,0,1,5.548,1.908L24.558,82.179a2.484,2.484,0,0,1-1.844,2.98" transform="translate(241.509 211.901)" fill="#8ec6e0"/>
        <path id="Fill_59" data-name="Fill 59" d="M3.319,1.227S8.951,21.837,27.724,24.336a2.828,2.828,0,0,0,1.741,2.907S5.441,28.127,0,0C0,0,.19,1.227,3.319,1.227" transform="translate(260.828 295.834)" fill="#5d638b"/>
        <path id="Fill_61" data-name="Fill 61" d="M1.379,3.123H331.4a1.382,1.382,0,0,0,1.379-1.376V1.376A1.382,1.382,0,0,0,331.4,0H1.379A1.382,1.382,0,0,0,0,1.376v.371A1.382,1.382,0,0,0,1.379,3.123" transform="translate(61.113 323.28)" fill="#008389"/>
        <path id="Fill_63" data-name="Fill 63" d="M31.188,5.938c.33.565,0,8.279,0,8.279s1.244,12.833-2.281,19.248c-1.663,5.23-11,9.875-20.86-3.247,0,0-10.869-8.964-7.343-12.69,0,0,3.94-3.726,7.465-.414,0,0-6.428-10.762,1.452-14.074,0,0,14.931-8.486,21.567,2.9" transform="translate(135.412 200.496)" fill="#7b3c1f"/>
        <path id="Fill_65" data-name="Fill 65" d="M50.216,25.5a9.847,9.847,0,0,0-3.036-.158,6.85,6.85,0,0,0-5.032,4.405,15.013,15.013,0,0,0-.271,6.02c-1.644-.82-2.238-1.394-4.108-1.64-1.347-.176-2.876,1.23-2.054,4.511.8,3.183,2.465,4.1,4.93,6.56.822,4.921,2.465,9.841,0,14.762-1.979,3.95-3.287,4.1-6.162,6.97-4.4,4.387-12.233,5.628-15,11.184-1.861,3.742-.8,8.515-2.976,12.083a6.059,6.059,0,0,1-2.192,2.175,7.032,7.032,0,0,1-5.171.386A11.555,11.555,0,0,1,.977,80.192c.591-3.645,2.971-6.911,3.036-10.6.059-3.354-1.794-6.4-3.016-9.521s-1.668-7.1.7-9.474a22.694,22.694,0,0,1,3.814-2.467,9.879,9.879,0,0,0,4.348-7.959c.074-5.478-4.359-10-5.448-15.373-1.077-5.31-.937-8.7,1.307-13.632C6.744,8.918,10.653,1.322,17.532.325,23.6-.555,30.041.271,35.046,3.8,38.59.5,44.273,0,49.084.672s9.226,2.291,8.734,9.734c.276-1.807,6.243-1.7,9.53,2.4a8.184,8.184,0,0,1,.721,8.089c-2.642,5.5-12.941,5.293-17.854,4.606" transform="translate(101.993 182.236)" fill="#532180"/>
        <path id="Fill_67" data-name="Fill 67" d="M15.781,8.629s-1.282,3.951,3.09,8.144c.241.231,1.518,6.414-2.728,8.109C11.763,26.629,2.368,23.308,0,15.737c0,0,6.2-4.568,3.516-15.737,0,0,7.309,7.316,12.265,8.629" transform="translate(139.641 230.436)" fill="#7b3c1f"/>
        <path id="Fill_69" data-name="Fill 69" d="M0,.011s17.255-1.64,23.007,34.443l-16.434.82S2.547,5.1,0,.011" transform="translate(165.644 249.564)" fill="#ff6084"/>
        <path id="Fill_71" data-name="Fill 71" d="M33.488,1.035l7.149,2.028a7.592,7.592,0,0,1,5.236,5.221c1.435,5.04,3.8,13.17,4.607,14.8,4.023,8.19-6.2,11.49-.822,48.385l-48.313.971L0,18.513A10.042,10.042,0,0,1,3.106,11L14.617,0c5.529,8.265,12.75,11.208,16.143,9.144,2.753-1.676,2.778-6.528,2.728-8.109" transform="translate(125.024 246.173)" fill="#ff3866"/>
        <path id="Fill_73" data-name="Fill 73" d="M17.3,3.158,14.2,26.243a4.1,4.1,0,0,0,4.073,4.648l34.7,2.07s13.832-5.6,20.74-1.491a2.908,2.908,0,0,1,.092,4.959c-2.626,1.688-8.352,3.941-20.832,2.584L5.312,40.861c-3.045.118-5.518-3.1-5.3-6.137L2.515,0S9.839,3.987,17.3,3.158" transform="translate(120.47 282.881)" fill="#7b3c1f"/>
        <path id="Fill_75" data-name="Fill 75" d="M21.438,34.274S28,2.009,10.961,0c0,0-12.016,6.046-10.886,30.31a40.45,40.45,0,0,0,21.363,3.964" transform="translate(120.377 256.716)" fill="#ff6084"/>
        <g id="Group_79" data-name="Group 79" transform="translate(0 293.364)">
          <path id="Clip_78-2" data-name="Clip 78" d="M0,0H61.333V47.01H0Z" transform="translate(0 0.183)" fill="none"/>
          <g id="Group_79-2" data-name="Group 79" clip-path="url(#clip-path-2)">
            <path id="Fill_77" data-name="Fill 77" d="M8.948,0C4.486,17.179-.377,47.69.023,45.884l61.31,1.126-.11-24.1Z" transform="translate(0 0.183)" fill="#005596"/>
          </g>
        </g>
        <path id="Fill_80" data-name="Fill 80" d="M18.668,1.482,29.763,37.9a8.055,8.055,0,0,0,1.8,3.131L56,67.33s12.551.342,17.643,5.634L49,72.412,17.978,43.875a9.649,9.649,0,0,1-2.472-3.633L0,0Z" transform="translate(69.427 250.808)" fill="#ffac85"/>
        <path id="Fill_82" data-name="Fill 82" d="M73.058,9.218s8.291,17.293-2.4,53.057C65.9,78.2,52.275,117.552,52.275,117.552L0,94.647,26.324,23.316S29.081-3.786,51.992.449Z" transform="translate(8.948 198.899)" fill="#008389"/>
        <path id="Fill_84" data-name="Fill 84" d="M39.67,1.058S36.7,10.375,36.7,12.7c0,0-2.122,12.492-7,18.208,0,0-5.3,9.316-13.577,2.964,0,0-.652,2.146-1.088,4.456-.5,2.669,6.03,7.49,6.03,7.49S18.767,58.984,7.1,47.55A25.341,25.341,0,0,1,0,37.053s5.3-4.869,5.515-16.091c0,0-3.394-18.209,6.364-11.646l3.183,1.906S12.65,2.3,18.456,0c0,0,16.123,5.5,21.214,1.058" transform="translate(60.941 162.296)" fill="#ffb88f"/>
        <path id="Fill_86" data-name="Fill 86" d="M41.345,21.507S54.5,12.826,43.678,5.415c0,0-6.788-5.293-18.032-1.482,0,0-4.137-6.776-14.213-2.541,0,0-11.871,3.44-11.421,11.589a8.283,8.283,0,0,0,.348,1.9c.984,3.32,5.854,20.264,4.708,26.745h4.88s-1.671-6.673.967-10.106a3.3,3.3,0,0,1,4.307-.752l1.514.906s-1.909-7.41,3.394-11.221c0,0,15.2,7.843,21.214,1.058" transform="translate(59.266 141.847)" fill="#ff7a00"/>
        <path id="Fill_88" data-name="Fill 88" d="M0,0S12.453,10.71,7.573,38.447H1.422S4.5,11.5,0,0" transform="translate(82.006 208.117)" fill="#008389"/>
        <path id="Fill_90" data-name="Fill 90" d="M16.119,0,43.485,20.115,78.276,43.829l17.06,2.544a5.592,5.592,0,0,1,2.525,1.053l12.916,9.668a3.066,3.066,0,0,1,1.23,2.455.854.854,0,0,1-1.261.75L96.309,52.509,85.02,55.962a4.884,4.884,0,0,1-3.608-.3L70.427,50.18,33.09,33.03,0,11.909S12.915,9.71,16.119,0" transform="translate(65.824 241.271)" fill="#ffb88f"/>
        <path id="Fill_92" data-name="Fill 92" d="M21.768,4.8,38.032,25.308s-5.638,16.12-22.185,12.216c0,0-19.162-18.586-15.343-28.537,0,0,1.954-7,8.908-8.665A12.107,12.107,0,0,1,21.768,4.8" transform="translate(44.739 216.405)" fill="#49ced2"/>
        <path id="Fill_94" data-name="Fill 94" d="M63.242,4.633l11.97,41.037H14.179L.185,4.264C-.439,2.132.537,0,2.762,0H57.056a6.44,6.44,0,0,1,6.185,4.633" transform="translate(171.057 273.298)" fill="#00395e"/>
        <path id="Fill_96" data-name="Fill 96" d="M2.041,4.625H95.169a2.045,2.045,0,0,0,2.041-2.038v-.55A2.045,2.045,0,0,0,95.169,0H2.041A2.045,2.045,0,0,0,0,2.037v.55A2.045,2.045,0,0,0,2.041,4.625" transform="translate(150.41 318.968)" fill="#00395e"/>
        <path id="Fill_98" data-name="Fill 98" d="M5.927,3c.758,2.135.117,4.31-1.431,4.858S1.077,7.119.319,4.984.2.674,1.75.126,5.169.865,5.927,3" transform="translate(217.218 282.757)" fill="#008a8e"/>
        <path id="Fill_100" data-name="Fill 100" d="M19.165,79.956a1.148,1.148,0,0,0,1.13-1.4L2.266.887A1.148,1.148,0,0,0,.03,1.4L18.059,79.069a1.147,1.147,0,0,0,1.106.886" transform="translate(246.719 212.998)" fill="#5d638b"/>
        <path id="Fill_102" data-name="Fill 102" d="M.03,35.686c.222,7.064,5.6,43.433,10.439,63.651,4.036,16.848,4.036,16.848,10.469,40.439,0-.006,3.977-14.031,9.057-21.189,5.444-7.671,15.688-9.658,25.576-9.561,13.422.133,29.1,2.479,41.269-3.447C107.172,100.546,113.4,91.526,113.81,81.3q.492-12.3.984-24.6c.711-17.767,5.331-39.831-16.419-50.331C89.6,2.133,79.344.821,69.328.487,35.591-.636-1.191-3.026.03,35.686" transform="translate(351.071 31.404)" fill="#5374d5"/>
        <path id="Fill_104" data-name="Fill 104" d="M50.529,33.854c-1.025.083-2.065.088-3.089.09C39.11,33.961.649,40.1.649,25.913c0-4.46-1.455-11.488-.008-15.647C5.14-2.664,22.214,1.366,32.3.44c6.242-.573,12.792-1,18.533,1.508,8.6,3.763,13.741,26.572,3.509,31.036a11.854,11.854,0,0,1-3.811.869" transform="translate(381.287 84.569)" fill="#cfabed"/>
        <path id="Fill_106" data-name="Fill 106" d="M7.155,3.715A3.579,3.579,0,1,1,3.722,0,3.576,3.576,0,0,1,7.155,3.715" transform="translate(392.728 100.421)" fill="#fff"/>
        <path id="Fill_108" data-name="Fill 108" d="M7.155,3.715A3.579,3.579,0,1,1,3.722,0,3.576,3.576,0,0,1,7.155,3.715" transform="translate(407.51 101.01)" fill="#fff"/>
        <path id="Fill_110" data-name="Fill 110" d="M7.156,3.715A3.579,3.579,0,1,1,3.722,0,3.576,3.576,0,0,1,7.156,3.715" transform="translate(422.212 101.596)" fill="#fff"/>
        <path id="Fill_112" data-name="Fill 112" d="M14.875,8.186l-7.829,4.07c-1.914,1-5.42-.107-6.417-2.017L.244,9.5c-1-1.91,1.263-3.2,3.177-4.191l7.829-4.07c1.914-1,4.265-2.107,5.262-.2l.385.737c1,1.911-.107,5.41-2.021,6.406" transform="translate(86.169 115.994)" fill="#8ca6d0"/>
        <path id="Fill_114" data-name="Fill 114" d="M20.666.612c.758,1.451-3.234,5.022-8.916,7.976S.849,12.76.092,11.309,3.327,6.287,9.008,3.333,19.909-.839,20.666.612" transform="translate(82.314 111.753)" fill="#8ca6d0"/>
        <path id="Fill_116" data-name="Fill 116" d="M11.658,7.976C5.977,10.93.757,12.148,0,10.7l.944,1.809C1.7,13.958,6.922,12.74,12.6,9.785s9.673-6.524,8.916-7.975L20.574,0c.757,1.451-3.235,5.022-8.916,7.976" transform="translate(82.406 112.364)" fill="#a6e7f2"/>
        <path id="Fill_118" data-name="Fill 118" d="M20.666.612c.757,1.451-3.235,5.022-8.916,7.976S.849,12.76.092,11.309,3.326,6.287,9.008,3.333,19.908-.839,20.666.612" transform="translate(80.542 108.357)" fill="#8ca6d0"/>
        <path id="Fill_120" data-name="Fill 120" d="M11.658,7.976C5.977,10.93.758,12.148,0,10.7l.944,1.809c.757,1.451,5.977.233,11.658-2.721s9.673-6.525,8.916-7.976L20.574,0c.757,1.451-3.235,5.022-8.916,7.976" transform="translate(80.634 108.969)" fill="#a6e7f2"/>
        <path id="Fill_122" data-name="Fill 122" d="M20.666.612c.758,1.451-3.234,5.022-8.916,7.976S.849,12.76.092,11.309,3.326,6.287,9.008,3.333,19.908-.839,20.666.612" transform="translate(78.769 104.962)" fill="#8ca6d0"/>
        <path id="Fill_124" data-name="Fill 124" d="M11.658,7.976C5.977,10.93.758,12.148,0,10.7l.944,1.809C1.7,13.958,6.922,12.74,12.6,9.785s9.673-6.525,8.916-7.976L20.574,0c.758,1.451-3.234,5.022-8.916,7.976" transform="translate(78.862 105.574)" fill="#a6e7f2"/>
        <path id="Fill_126" data-name="Fill 126" d="M20.666.612c.758,1.451-3.234,5.022-8.916,7.976S.849,12.76.092,11.309,3.327,6.287,9.008,3.333,19.908-.839,20.666.612" transform="translate(76.997 101.567)" fill="#8ca6d0"/>
        <path id="Fill_128" data-name="Fill 128" d="M11.658,7.976C5.977,10.93.757,12.148,0,10.7l.944,1.809C1.7,13.958,6.922,12.74,12.6,9.785s9.673-6.525,8.915-7.975L20.574,0c.757,1.451-3.235,5.022-8.916,7.976" transform="translate(77.09 102.178)" fill="#a6e7f2"/>
      </g>
      <g id="Group_133" data-name="Group 133" transform="translate(36 39)">
        <path id="Clip_132-2" data-name="Clip 132" d="M17.358,4.124s-.029.014-.081.041h0c-.052.027-.08.043-.08.043h0S-10.556,17.331,4.451,46.494h0s4.805,11.3,19.1,15.435h0a19.51,19.51,0,0,1,2.434.908h0C29.616,64.442,38.923,69,40.563,73.306h0s3.138.952,10.642-3.021h0l.06-.031h0l.06-.033h0c7.515-3.951,8.543-7.1,8.543-7.1h0c-2.541-3.828-.9-14.166-.115-18.1h0a19.887,19.887,0,0,1,.661-2.542h0c4.848-14.234-1.541-24.7-1.541-24.7h0C51.608,3.644,41.638,0,33.289,0h0a34.871,34.871,0,0,0-15.93,4.124" transform="translate(0.348 0.01)" fill="none"/>
        <g id="Group_133-2" data-name="Group 133" clip-path="url(#clip-path-3)">
          <path id="Fill_131" data-name="Fill 131" d="M58.872,17.776C43.88-11.394,17.359,4.123,17.359,4.123l-.081.041-.08.043S-10.556,17.331,4.45,46.494c0,0,4.806,11.3,19.1,15.435a19.3,19.3,0,0,1,2.434.909c3.632,1.6,12.938,6.165,14.578,10.468,0,0,3.138.953,10.642-3.02l.06-.031.06-.033c7.514-3.951,8.542-7.1,8.542-7.1-2.541-3.828-.9-14.167-.115-18.1a19.905,19.905,0,0,1,.661-2.541c4.849-14.234-1.541-24.7-1.541-24.7" transform="translate(0.348 0.01)" fill="#fed946"/>
        </g>
      </g>
      <g id="Group_152" data-name="Group 152" transform="translate(9 3)">
        <path id="Fill_134" data-name="Fill 134" d="M30.91,48.335h0L16.923,23.63a19.365,19.365,0,0,1-7.246,1.687,10.153,10.153,0,0,1-3.012-.435,10.271,10.271,0,0,1-6.02-5.451A5.756,5.756,0,0,1,3.1,11.682L6.373,9.976A5.116,5.116,0,0,1,13.211,12l4.77,8.424c1.312-.623,2.591-1.3,3.719-1.9l.115-.061.274-.147c.452-.241.865-.468,1.261-.694l-4.393-8.23a5.39,5.39,0,0,1,2.271-7.32L23.869.7A6.213,6.213,0,0,1,26.726,0a6.17,6.17,0,0,1,5.687,3.77,12.327,12.327,0,0,1,1.064,4.811,9.033,9.033,0,0,1-.932,3.973,15.839,15.839,0,0,1-5.873,5.978L39.888,43.3l-2.207,1.175L24.529,19.829c-.417.236-.831.462-1.263.691l-.274.146c-1.135.605-2.421,1.291-3.776,1.939L33.088,47.1l-2.176,1.23ZM8.75,11.892a2.653,2.653,0,0,0-1.22.3L4.252,13.9a3.256,3.256,0,0,0-1.385,4.383A7.762,7.762,0,0,0,7.408,22.5a7.682,7.682,0,0,0,2.277.324,16.5,16.5,0,0,0,6-1.383l-4.647-8.207A2.632,2.632,0,0,0,8.75,11.892Zm17.968-9.4a3.636,3.636,0,0,0-1.693.419L22.384,4.287a2.893,2.893,0,0,0-1.219,3.928l4.319,8.093c2.65-1.773,4.292-3.533,5.021-5.381a7.946,7.946,0,0,0-.4-6.186,3.634,3.634,0,0,0-2.14-2.027A3.678,3.678,0,0,0,26.717,2.494Z" transform="translate(43.372 59.577)" fill="#e7e7e7"/>
        <path id="Fill_136" data-name="Fill 136" d="M22.189,9.412A61.119,61.119,0,0,1,0,2.182L1.22,0A58.6,58.6,0,0,0,22.492,6.931Z" transform="translate(0.099 53.238)" fill="#fed946"/>
        <path id="Fill_138" data-name="Fill 138" d="M20.222,25.413l-1.991,1.513C11.925,18.646,5.791,10.054,0,1.387L2.081,0C7.843,8.624,13.947,17.173,20.222,25.413" transform="translate(17.754 12.021)" fill="#fed946"/>
        <path id="Fill_140" data-name="Fill 140" d="M2.453,30.218,0,29.729A90.36,90.36,0,0,1,11.522,0l2.132,1.307a87.878,87.878,0,0,0-11.2,28.911" transform="translate(64.022 0.355)" fill="#fed946"/>
        <path id="Fill_142" data-name="Fill 142" d="M19.3,1.965A136.354,136.354,0,0,0,1.866,18.325L0,16.66A138.894,138.894,0,0,1,17.759,0Z" transform="translate(89.187 29.795)" fill="#fed946"/>
        <path id="Fill_144" data-name="Fill 144" d="M24.272,2.5A136.529,136.529,0,0,0,.495,5.149L0,2.7A139.1,139.1,0,0,1,24.214,0Z" transform="translate(97.336 59.527)" fill="#fed946"/>
        <path id="Fill_146" data-name="Fill 146" d="M1.321,13.11A136.462,136.462,0,0,1,22.668,2.32L21.738,0A138.971,138.971,0,0,0,0,10.989Z" transform="translate(5.627 83.316)" fill="#fed946"/>
        <path id="Fill_148" data-name="Fill 148" d="M2.2,21.474A136.214,136.214,0,0,1,15.421,1.558L13.466,0A138.758,138.758,0,0,0,0,20.282Z" transform="translate(26.778 97.507)" fill="#fed946"/>
        <path id="Fill_150" data-name="Fill 150" d="M0,108.254c.007,0,18.554-12.137,25.107-27.125,2.635-6.028-2.971-23.98-3.223-31.108-.405-11.419-.6-25.473,5.634-35.589C40.663-6.908,86.777,1.4,107.72,2.538c13.6.738,25.066,11.545,27.8,26.36,2.2,11.9,3.023,28.416-.379,50.339C127.723,126.943,30.715,98.3,0,108.254" transform="translate(100.446 56.73)" fill="#ffdb67"/>
      </g>
    </g>
  </g>
</svg>
