<svg xmlns="http://www.w3.org/2000/svg" width="366" height="435.891" viewBox="0 0 366 435.891">
  <g id="AdobeStock_293675468_Converted_" data-name="AdobeStock_293675468 [Converted]" transform="translate(0 -0.109)">
    <path id="Path" d="M366,10.5C366,16.3,284.07,21,183,21S0,16.3,0,10.5,81.93,0,183,0,366,4.7,366,10.5Z" transform="translate(0 415)" fill="rgba(0,0,0,0.42)"/>
    <g id="Group" transform="translate(140 137)">
      <path id="Path-2" data-name="Path" d="M89.007,26.641c-1.828,1.073-4.01,2.133-5.372,2.043-2.694-.173,1.633,6.639-.16,8.257s-3.6-3.042-7.908-3.751-2.842,11.5-5.714,11.5-4.327-6.99-4.333-9.323-8.09-5.005-11.144-5.714,3.963,5.914.74,8.254S43.45,38.3,40.741,32.022s1.954-8.442,3.03-8.984,7.357-1.276-1.627-4.124-2.167-5.56-2.352-7.532-6.272,3.785-7.535,1.994,8.059-6.842,10.75-7.745,10.417,2.487,13.468,2.12c1.069-.129,2.179-2.687,3.165-5.957A46.745,46.745,0,1,0,89.007,26.641Z" transform="translate(0.172 0.182)" fill="#5e72c6"/>
      <path id="Path-3" data-name="Path" d="M17.368,5.678S11.892-3.1,7.91,1.175-1.623,13.863.448,21.756c2.786,10.617,18.553,2.9,20.412,1.1S21.606,8.106,17.368,5.678Z" transform="translate(52.364 46.121)" fill="#1f2121" opacity="0.1"/>
      <path id="Path-4" data-name="Path" d="M24.557,5.954c-3.051.367-10.778-3.023-13.468-2.12s-13.083,4-10.75,7.745C1.5,13.44,7.689,7.612,7.874,9.585s-6.629,4.685,2.352,7.532,2.7,3.584,1.627,4.124-5.739,2.706-3.03,8.984S19.974,38.454,23.2,36.111s-3.791-8.965-.74-8.254S33.6,31.239,33.6,33.572s1.461,9.329,4.333,9.323,1.405-12.211,5.714-11.5,6.118,5.369,7.908,3.751-2.533-8.429.16-8.257c1.359.086,3.544-.974,5.372-2.043A46.89,46.89,0,0,0,27.728,0C26.733,3.267,25.626,5.828,24.557,5.954Z" transform="translate(32.096 1.979)" fill="#3b4c8f"/>
      <path id="Path-5" data-name="Path" d="M5.315,2.212C1.681,5.574-3.62,17.671,3.567,20.525s9.227,7.31,9.831,12.987,1.575,16.356,10.4,13.773,1.128-6.669,3.338-8.149,4.833-3.942,2.376-7.468,7.64-3.332,7.8-9.613S27.6,12.746,26.7,8.8s-8.041-5.184-8.041-5.184C15.374,5.238,12.12-4.088,5.315,2.212Z" transform="translate(8.674 29.166)" fill="#3b4c8f"/>
      <path id="Path-6" data-name="Path" d="M14.836.2C11.73-.291,4.194,0,2.549,2.439s-4.675,9.739-.237,12.242,13-2.157,14.584-6.167S18.451.778,14.836.2Z" transform="translate(62.863 51.378)" fill="#3b4c8f"/>
      <path id="Path-7" data-name="Path" d="M17.216,26.379A59.786,59.786,0,0,1,36.081,0,46.787,46.787,0,0,0,31.7,89.833,60.087,60.087,0,0,1,17.216,26.379Z" transform="translate(0.179 1.415)" fill="#1f2121" opacity="0.1"/>
    </g>
    <g id="Group-2" data-name="Group" transform="translate(36)">
      <g id="_x30_3_Standing" transform="translate(0 17.335)">
        <g id="head_10_" transform="translate(55.85)">
          <path id="Path-8" data-name="Path" d="M26.229,17.031c-4.414,6.131-5.083,16.882-7.1,6.8-.98-4.93-4.749-4.851-7.595-1.962-3.5,3.555.417,8.679-.49,9.96s-7.05,6.18-8.206,6S-3.815,16.6,4.559,6.149c9.165-11.432,31.562-5.562,33.3,6.469C36,12.016,30.6,10.963,26.229,17.031Z" transform="translate(0.618 0.167)" fill="#fff"/>
        </g>
        <g id="leg_20_" transform="translate(0 180.95)">
          <path id="Path-9" data-name="Path" d="M43.912,23.429,0,11.526,4.5,0,24.458,1.32,45.781,18.639Z" transform="translate(0.143 205.37)" fill="#fff"/>
          <path id="Path-10" data-name="Path" d="M75.03,27.4S53,111.165,47.284,123.843c-3.835,8.509-16.729,51.21-23.444,76.2L0,192.972c.414-16.331.843-30.123,5.421-45.487,9.649-32.407,17.009-49.717,18.4-75.828s-8.8-53.534-4.079-68.3S75.03,27.4,75.03,27.4Z" transform="translate(6.636 0.03)" fill="#eaebec"/>
        </g>
        <g id="leg_21_" transform="translate(28.004 177.3)">
          <path id="Path-11" data-name="Path" d="M0,5.337s21.225,94.3,22.078,102.344-4.49,23.5-.037,51.21c2.225,13.853,5.412,37.1,8.039,48.321l21.606.654c.664-24.141,1.814-75.056,1.969-84.876.222-13.935,10.754-97.582,10.754-97.582S7.984-14,0,5.337Z" transform="translate(0.143 0.252)" fill="#fff"/>
          <path id="Path-12" data-name="Path" d="M45.482,15.492,0,16.885.941,4.55,20.425,0,45.872,10.364Z" transform="translate(30.107 215.123)" fill="#fff"/>
        </g>
        <path id="Path-13" data-name="Path" d="M34.774.073C26.1.611,18.105,9.647,12.517,26.005,8.231,55.5,0,166.574,0,166.574H78.579S67.87,18.253,52.371,6.286C46.219,1.25,42.146-.383,34.774.073Z" transform="translate(19.834 52.235)" fill="#293657"/>
      </g>
      <g id="_x30_2_Standing_1_" transform="translate(199.073)">
        <g id="head_9_" transform="translate(11.229)">
          <path id="Path-14" data-name="Path" d="M0,11.957,16.389,27.786c1.358-4.626,4.952-4.227,7.421-1.223,3.035,3.7-1.141,8.257-.387,9.555s6.2,6.508,7.321,6.438S50.675,28.744,36.186,6.97C29.511-3.063,9.808-2.987,0,11.957Z" transform="translate(0.932 21.435)" fill="#293657"/>
          <path id="Path-15" data-name="Path" d="M0,12.043c-.164,6.9,4.045,11.313,10.331,11.465S19.6,19.22,19.763,12.32,16.74.158,10.457,0,.172,5.14,0,12.043Z" transform="translate(10.644 0.109)" fill="#293657"/>
        </g>
        <g id="leg_19_" transform="translate(28.004 200.109)">
          <path id="Path-16" data-name="Path" d="M0,26.066s22.035,83.769,27.745,96.451c3.835,8.509,15.743,40.94,22.458,65.926l12.024-5.067c1.562-12.4-1.327-26.586-5.905-41.947-9.649-32.407-15.153-43.556-16.544-69.67s8.8-53.534,4.079-68.3S0,26.066,0,26.066Z" transform="translate(0.143 0.018)" fill="#415397"/>
          <g id="Group-3" data-name="Group" transform="translate(33.788 190.399)">
            <path id="Path-17" data-name="Path" d="M2.386,25.412,40.557,12.888,34.859,0,17.32,1.539,0,18.87Z" transform="translate(0.064 12.788)" fill="#293657"/>
            <path id="Path-18" data-name="Path" d="M15.551,12.536,2.064,13.679,0,3.351,12.06,0Z" transform="translate(18.114 0.404)" fill="#fff"/>
          </g>
        </g>
        <g id="leg_18_" transform="translate(0 196.764)">
          <path id="Path-19" data-name="Path" d="M55.841,5.337s-21.231,94.3-22.078,102.344,4.49,23.5.037,51.207c-2.228,13.856-5.412,28.538-8.042,39.76l-13.034.654c-.664-24.147-1.814-66.492-1.969-76.315C10.532,109.053,0,25.409,0,25.409S47.857-14,55.841,5.337Z" transform="translate(14.398 0.036)" fill="#4d5cb0"/>
          <g id="Group-4" data-name="Group" transform="translate(0 204.602)">
            <path id="Path-20" data-name="Path" d="M0,17.326,40.156,18.6,39.215,4.55,22.205,0,0,10.364Z" transform="translate(0.119 10.305)" fill="#293657"/>
            <path id="Path-21" data-name="Path" d="M13.068,13.947,0,10.41,1.6,0,14.078.976Z" transform="translate(25.033 0.619)" fill="#fff"/>
          </g>
        </g>
        <g id="hoodie_2_" transform="translate(4.566 67.514)">
          <path id="Path-22" data-name="Path" d="M0,14.759,60.282,0s12.24,38.148-18.1,39.934S0,14.759,0,14.759Z" transform="translate(22.744 0.03)" fill="#fff"/>
          <path id="Path-23" data-name="Path" d="M39,.1c8.669.538,16.672,9.574,22.257,25.932,4.286,29.5,19.652,139.65,19.652,139.65L0,158.49S4.164,15.032,19.664,3.068A42.419,42.419,0,0,1,39,.1Z" transform="translate(0.21 12.776)" fill="#fff"/>
        </g>
      </g>
      <g id="Group-5" data-name="Group" transform="translate(81.882 170.61)">
        <g id="hand_14_">
          <path id="Path-24" data-name="Path" d="M11.174,8.7c1.656-.964,4.368-3.674,5.47-4.5a36.882,36.882,0,0,1,5.884-2.941c.782-.228,4.505-1.746,4.736-1.1S25.977,3.65,23.679,4.383,19.91,6.542,20.047,7.415s2.207,2.433,5.656,2.8a31.651,31.651,0,0,0,7.585-.368c1.656-.137,7.448.137,7.126,1.7S36,13.016,35.358,13.111s-7.035.6-7.4,1.01-.782,1.286-.091,1.515,5.793,1.518,7.585,2.022,5.22,1.609,4.977,3.26-2.77.827-4.335.231-3.817-.827-4.873-1.15-3.723-1.1-4.231-.459.228,1.1.965,1.56a61.049,61.049,0,0,0,6.712,3.446c1.151.322,1.976.918,1.884,1.56s-.642,1.423-2.895.642-4.551-1.1-5.747-1.928-3.817-2.8-4.277-2.342-.091,1.928.782,2.8,3.817,3.9,4.505,4.547.368,1.241,0,1.423a6.736,6.736,0,0,1-4.691-2.2C22.8,27.3,20.5,24.771,19.308,24.22S9.975,19.582,8.045,19.306a34.157,34.157,0,0,0-5.656.046L0,9.017C0,9.023,9.518,9.665,11.174,8.7Z" transform="translate(36.354 0.109)" fill="#1c1c24"/>
          <path id="Path-25" data-name="Path" d="M42.563,5.815,44.63,18.454,0,24.731,5.479,0Z" transform="translate(0 2.737)" fill="#293657"/>
        </g>
        <g id="hand_13_" transform="translate(67.271 11.556)">
          <path id="Path-26" data-name="Path" d="M28.266,8.24c-1.5-1.01-3.881-3.725-4.867-4.571S18.462,1.72,17.741,1.455,13.61-.464,13.354.126s1,3.364,3.114,4.194S20.185,5.67,20,6.482s-2.225,2.153-5.491,2.287A29.842,29.842,0,0,1,7.4,7.957C5.848,7.726.384,7.021.591,8.511s4.061,2.263,4.66,2.387,6.578.994,6.9,1.405.654,1.259-.006,1.432-5.54,1.07-7.26,1.435S-.124,16.363,0,17.932s2.557.949,4.064.484,3.641-.544,4.654-.782,3.571-.809,4.006-.173-.283,1.022-1,1.408A57.437,57.437,0,0,1,5.2,21.7c-1.1.231-1.915.742-1.869,1.353s.517,1.378,2.685.782,4.35-.757,5.525-1.463,3.762-2.4,4.167-1.94-.033,1.819-.907,2.588-4.134,2.828-4.822,3.391-.423,1.143-.088,1.341a7.1,7.1,0,0,0,4.545-1.481c1.82-1.438,3.5-2.476,5.226-3.929.95-.8,9.062-3.789,10.894-3.932a32.3,32.3,0,0,1,5.315.392L38.75,9.225C38.756,9.228,29.764,9.25,28.266,8.24Z" transform="translate(0.072 10.165)" fill="#1c1c24"/>
          <path id="Path-27" data-name="Path" d="M2.067,15.407,0,30.174l48.185-10L35.964,0Z" transform="translate(29.435 0.201)" fill="#fff"/>
        </g>
      </g>
    </g>
  </g>
</svg>
