<svg xmlns="http://www.w3.org/2000/svg" width="332.019" height="331.964" viewBox="0 0 332.019 331.964">
  <g id="test" transform="translate(-0.249 -0.036)">
    <g id="Group" transform="translate(236)">
      <path id="Path" d="M0,6.465,26.159,0,48.9,16.613l-26.159,6.46Z" transform="translate(7.103 0.036)" fill="#1c1c24"/>
      <path id="Path-2" data-name="Path" d="M7.038,6.46,33.2,0,26.169,30.525,0,36.98Z" transform="translate(22.804 16.648)" fill="#5379f0"/>
      <path id="Path-3" data-name="Path" d="M7.008,0,29.746,16.608l-7.038,30.52L0,30.525Z" transform="translate(0.096 6.5)" fill="#3656b3"/>
    </g>
    <g id="Group-2" data-name="Group" transform="translate(243 217)">
      <path id="Path-4" data-name="Path" d="M0,8.379,34.405,0,48.989,43.24l-34.4,8.379Z" transform="translate(27.858 0.381)" fill="#fff"/>
      <path id="Path-5" data-name="Path" d="M27.669,8.379,62.069,0,34.4,12.807,0,21.186Z" transform="translate(14.778 43.621)" fill="#cacdd7"/>
      <path id="Path-6" data-name="Path" d="M27.669,0,42.258,43.24,14.589,56.047,0,12.777Z" transform="translate(0.189 8.76)" fill="#e6e8ee"/>
    </g>
    <path id="Shape" d="M1.067,62.427a.682.682,0,0,1,.57-.771A30.463,30.463,0,0,0,22.2,45.308a12.825,12.825,0,0,0,1.282-7.843,25.092,25.092,0,0,1-6.809,1.314c-6.9.385-13.155-1.851-15.593-5.565a6.645,6.645,0,0,1-.133-7.055c2.483-4.748,7.573-5.9,13.294-3.019a20.687,20.687,0,0,1,10.252,12.5,16.952,16.952,0,0,0,8.835-8.086c8.091-16.079-1.149-26.326-1.247-26.427A.669.669,0,0,1,32.12.178a.688.688,0,0,1,.965.041c.1.106,9.964,11.038,1.463,27.939a18.819,18.819,0,0,1-9.77,8.811,14.106,14.106,0,0,1-1.36,8.942A31.841,31.841,0,0,1,1.848,62.99c-.041,0-.077.01-.108.01A.677.677,0,0,1,1.067,62.427Z" transform="translate(29 87)" fill="#e6e8ee"/>
    <path id="Shape-2" data-name="Shape" d="M6.147,25.344a20.566,20.566,0,0,1-1.584-8.168,10.69,10.69,0,0,1-4.185-.213.5.5,0,1,1,.255-.973,9.655,9.655,0,0,0,3.946.152C4.793,10.5,6.849,4.977,9.731,2.064,11.635.138,13.789-.465,15.8.361c2.4.993,3.233,3.167,2.281,5.974-1.43,4.232-6.741,9.371-12.478,10.652a19.645,19.645,0,0,0,1.476,7.957c1.655,3.8,5.438,8.285,14.384,8.042,8.171-.213,14.256-2.565,18.079-6.994,5.336-6.182,4.378-14.351,4.369-14.432A.506.506,0,0,1,44.342,11a.515.515,0,0,1,.565.436c.046.35,1.023,8.7-4.607,15.214-4.023,4.657-10.351,7.124-18.818,7.348-.23,0-.458.005-.682.005C11.834,34,7.883,29.323,6.147,25.344Z" transform="translate(287 54)" fill="#e6e8ee"/>
    <ellipse id="Oval" cx="9.656" cy="9.661" rx="9.656" ry="9.661" transform="matrix(0.973, -0.229, 0.229, 0.973, 309.043, 157.469)" fill="#344fb5"/>
    <path id="Path-7" data-name="Path" d="M12.5,0,0,20H25Z" transform="translate(195 312)" fill="#344fb5"/>
    <path id="Path_Copy" data-name="Path Copy" d="M12.5,0,0,20H25Z" transform="translate(93 72)" fill="#344fb5"/>
    <g id="Group-3" data-name="Group" transform="translate(0 160)">
      <path id="Path-8" data-name="Path" d="M0,7.256,29.605,0,45.8,35.222,16.2,42.468Z" transform="translate(21.75 0.417)" fill="#344fb5"/>
      <path id="Path-9" data-name="Path" d="M21.506,7.246,51.107,0,29.61,16.892,0,24.147Z" transform="translate(16.447 35.639)" fill="#1c1c24"/>
      <path id="Path-10" data-name="Path" d="M21.5,0,37.7,35.212,16.2,52.114,0,16.9Z" transform="translate(0.249 7.673)" fill="#5379f0"/>
    </g>
    <path id="Path-11" data-name="Path" d="M112,86H79.94s-.731-8.227,1.351-14.294c0,0-.229-11.508-11.829-12.348S57.633,71.222,57.633,71.222,60.228,82.882,58.979,86H26.609V53.779s-9.523-1.111-14.735,1.35c0,0-12.815-.616-11.819-12.308S11.488,31.411,11.488,31.411s9.727,2.715,15.121,1.345V.357L58.984,0s.874,9.608-1.351,15.135c0,0,.584,12.481,12.241,11.864S81.286,15.135,81.286,15.135,78.61,4.845,79.94.357h32.055V86Z" transform="translate(197.761 221.997) rotate(-120)" fill="#cacdd7"/>
    <path id="Path-12" data-name="Path" d="M85,.006,52.95,5.077c-.092.031-.122.041-.158.056a.415.415,0,0,0-.087.056.977.977,0,0,0-.076.071.529.529,0,0,0-.061.087.662.662,0,0,0-.041.087.4.4,0,0,0-.025.112c-.2,6.421,3.233,13.737,3.656,14.608a11.316,11.316,0,0,1-22.353,3.539c.132-.957,1.13-8.977-1.013-14.975a.662.662,0,0,0-.158-.219c-.025-.02-.051-.041-.081-.061a.721.721,0,0,0-.092-.041.6.6,0,0,0-.1-.025.752.752,0,0,0-.107-.005c-.061,0-31.8,5.02-31.8,5.02A.54.54,0,0,0,.007,14L13.388,98.545a.54.54,0,0,0,.616.448l31.742-5.026c.025-.005.046-.015.066-.02s.046-.015.066-.02a.521.521,0,0,0,.112-.071.713.713,0,0,0,.168-.229.431.431,0,0,0,.02-.087.532.532,0,0,0,.02-.087c.188-6.365-3.243-13.686-3.666-14.557a11.316,11.316,0,0,1,22.353-3.539c-.132.957-1.13,8.977,1.013,14.975a.662.662,0,0,0,.158.219.486.486,0,0,0,.081.061.722.722,0,0,0,.092.041.6.6,0,0,0,.1.025.752.752,0,0,0,.107.005c.061.005,32.108-5.071,32.108-5.071a.538.538,0,0,0,.351-.219.563.563,0,0,0,.1-.4L93.959,53.183a1.054,1.054,0,0,0-.061-.168.289.289,0,0,0-.041-.066.572.572,0,0,0-.092-.1.641.641,0,0,0-.183-.1.788.788,0,0,0-.143-.031c-6.365-.188-13.686,3.243-14.557,3.666a11.319,11.319,0,0,1-3.544-22.358c.957.132,8.977,1.13,14.975-1.013a.614.614,0,0,0,.178-.107.319.319,0,0,0,.076-.1.49.49,0,0,0,.061-.1c.01-.031.015-.061.025-.1a.419.419,0,0,0,.01-.137C90.669,32.419,85.608.433,85.608.433a.553.553,0,0,0-.214-.351A.621.621,0,0,0,85,.006Z" transform="translate(57.496 261.5) rotate(-45)" fill="#e6e8ee"/>
  </g>
</svg>
