<svg width="15" height="13" viewBox="0 0 15 13" fill="none" xmlns="http://www.w3.org/2000/svg">
<path fill-rule="evenodd" clip-rule="evenodd" d="M14.0297 0H0.970312C0.435234 0 0 0.416696 0 0.929036V9.68593C0 10.198 0.435234 10.615 0.970312 10.615H4.92023L6.79266 12.6778C6.97875 12.883 7.24758 13 7.53094 13H7.54266C7.83047 12.997 8.10117 12.8733 8.28516 12.6601L10.0491 10.615H14.0297C14.5648 10.615 15 10.198 15 9.68593V0.929036C15 0.416696 14.5648 0 14.0297 0" fill="#5379F0"/>
<path fill-rule="evenodd" clip-rule="evenodd" d="M7.33325 4.5H2.66675C2.29851 4.5 2 4.16425 2 3.74986C2 3.33575 2.29851 3 2.66675 3H7.33325C7.70149 3 8 3.33575 8 3.74986C8 4.16425 7.70149 4.5 7.33325 4.5" fill="white"/>
<path fill-rule="evenodd" clip-rule="evenodd" d="M12.3332 7.5H2.66652C2.29828 7.5 2 7.16431 2 6.75C2 6.33597 2.29828 6 2.66652 6H12.3332C12.7015 6 13 6.33597 13 6.75C13 7.16431 12.7015 7.5 12.3332 7.5" fill="white"/>
</svg>
