<svg id="Group_5" data-name="Group 5" xmlns="http://www.w3.org/2000/svg" width="82" height="76" viewBox="0 0 82 76">
  <path id="Fill_1" data-name="Fill 1" d="M15.9,0C7.119,0,0,7.37,0,16.454V36.759c0,.193,0,.382.01.572A3.061,3.061,0,0,0,0,37.64V61.672c0,2.605,1.319,3.1,2.931,1.1l10.233-9.818a15.478,15.478,0,0,0,2.735.23H51.1A16.158,16.158,0,0,0,67,36.76V16.454C67,7.37,59.881,0,51.1,0Z" fill="#8fc0fd"/>
  <path id="Fill_1_Copy" data-name="Fill 1 Copy" d="M-12.577,0C-5.631,0,0,6.162,0,13.757V30.736c0,.162,0,.319-.008.479C0,31.3,0,31.387,0,31.472V51.054c0,2.178-1.043,2.591-2.319.918l-8.095-7.7a11.6,11.6,0,0,1-2.163.192H-40.423C-47.369,44.467-53,38.331-53,30.736V13.758C-53,6.163-47.369,0-40.423,0Z" transform="translate(82 23)" fill="#555abf"/>
</svg>
