<svg id="Group_6" data-name="Group 6" xmlns="http://www.w3.org/2000/svg" width="92.002" height="101" viewBox="0 0 92.002 101">
  <g id="Fill_3" data-name="Fill 3" transform="translate(0 18)">
    <path id="Path" d="M41.5,0A41.5,41.5,0,1,1,0,41.5,41.5,41.5,0,0,1,41.5,0Z" fill="#8fc0fd"/>
    <path id="Fill_1" data-name="Fill 1" d="M32.629,66.5a32.71,32.71,0,0,1-16.7-4.576A33.294,33.294,0,0,1,4.1,49.908c2.339-1.7,6.387-4.676,7.231-5.468C12.766,43.082,9.9,39.1,9.871,39.057S8.238,36.235,8.8,34.2a2.54,2.54,0,0,1,1.27-1.6,3.334,3.334,0,0,0,1.687-3.011A5.722,5.722,0,0,0,9.582,24.97a1.419,1.419,0,0,0-.752-.22,5.487,5.487,0,0,0-2.307.951A30.464,30.464,0,0,1,0,28.53l0,0A33.316,33.316,0,0,1,10.932,8.218,32.658,32.658,0,0,1,32.625,0c1.09,0,2.192.055,3.275.162.452,2.327,1.07,5.5,1.219,6.17a4.335,4.335,0,0,1-.606,3.3c-.907,1.4-2.628,2.463-5.115,3.156A14.169,14.169,0,0,0,25,16.422c-1.381,1.442-2.088,3.047-1.891,4.293.149.941,1.334,2.439,2.589,4.025,2.027,2.561,4.325,5.464,3.132,7.031-1.176,1.543-3.741,1.609-5.8,1.663-1.356.035-2.527.065-3.023.49a5.789,5.789,0,0,0-1.137,4.684,1.952,1.952,0,0,0,1.3,1.625,13.964,13.964,0,0,0,3.054.275c1.745.045,3.55.091,4.135.793a.893.893,0,0,1,.182.742,15.1,15.1,0,0,1-1.764,3.986,12.275,12.275,0,0,0-1.628,3.746.636.636,0,0,0,.18.5,3.846,3.846,0,0,0,2.586.632c2.127,0,5.008-.671,6.156-1.914a5.636,5.636,0,0,1,4.054-1.525c1.833,0,3.078.715,3.172,1.822.125,1.5-1.555,4.15-3.038,6.485a27.255,27.255,0,0,0-1.812,3.1c-.55,1.276,2.143,4.4,4.5,6.8A32.749,32.749,0,0,1,32.629,66.5ZM54.62,35.265a2.667,2.667,0,0,1-.536-.056c-1.214-.252-1.915-1.185-2.143-2.854a20.927,20.927,0,0,1,.153-4.721,15.056,15.056,0,0,0,.152-2.85c-.141-1.183-.953-1.735-2.555-1.735a16.45,16.45,0,0,0-2.117.187l-.109.014a14.956,14.956,0,0,1-1.818.172c-.684,0-1.077-.148-1.235-.466-.342-.686.414-2.217,2.379-4.82L54.4,8.065v0A33.131,33.131,0,0,1,66.5,32.528a41.023,41.023,0,0,0-5.174-2.869,1.6,1.6,0,0,0-.6-.124c-1.054,0-1.795,1.241-2.579,2.554l-.186.311C57.054,33.91,56.114,35.265,54.62,35.265Z" transform="translate(8 8)" fill="#fff"/>
  </g>
  <path id="Path-2" data-name="Path" d="M0,4.275v7.45c0,5.7,9,5.7,9,0V4.275C9-1.425,0-1.425,0,4.275Z" transform="translate(52 0)" fill="#a3eee3"/>
  <path id="Path-3" data-name="Path" d="M4.492,2.842.67,9.191A4.447,4.447,0,0,0,1.926,15.2a4.228,4.228,0,0,0,6.157-1.324l4.253-7.059A4.451,4.451,0,0,0,11.081.805,4.228,4.228,0,0,0,4.922,2.128Z" transform="translate(65.997 4.997)" fill="#a3eee3"/>
  <path id="Path-4" data-name="Path" d="M9.832.4,2.586,3.638A4.286,4.286,0,0,0,.41,9.424a4.309,4.309,0,0,0,5.763,2.182l7.245-3.237A4.286,4.286,0,0,0,15.6,2.585,4.31,4.31,0,0,0,9.832.4Z" transform="translate(75.998 19.996)" fill="#a3eee3"/>
</svg>
