<svg xmlns="http://www.w3.org/2000/svg" width="83.75" height="83.75" viewBox="0 0 83.75 83.75">
  <g id="Group_5" data-name="Group 5" transform="translate(-103 -44)">
    <path id="Fill_1" data-name="Fill 1" d="M41.875,83.75a41.886,41.886,0,0,1-16.3-80.459,41.885,41.885,0,0,1,32.6,77.168A41.606,41.606,0,0,1,41.875,83.75Zm0-75A33.125,33.125,0,1,0,75,41.875,33.163,33.163,0,0,0,41.875,8.75Z" transform="translate(103 44)" fill="#86bbfd"/>
    <path id="Path" d="M17.819,8.373,38.706.2a2.915,2.915,0,0,1,3.777,3.777L34.312,24.865a16.672,16.672,0,0,1-9.445,9.445L3.979,42.483A2.915,2.915,0,0,1,.2,38.705L8.374,17.818A16.672,16.672,0,0,1,17.819,8.373Z" transform="translate(123.532 64.533)" fill="#f57171"/>
    <circle id="Oval" cx="5" cy="5" r="5" transform="translate(140 81)" fill="#fff"/>
  </g>
</svg>
