<svg width="49" height="43" viewBox="0 0 49 43" fill="none" xmlns="http://www.w3.org/2000/svg">
<path fill-rule="evenodd" clip-rule="evenodd" d="M42.7734 6.81707H35.2708L32.9739 2.09756C32.4635 1.04878 31.3908 0.366653 30.2185 0.366653H18.7841C17.6098 0.366653 16.5391 1.04878 16.0287 2.09756L13.7318 6.81707H6.22718C2.90948 6.81707 0.255821 9.54348 0.255821 12.901V36.603C0.255821 39.9582 2.90958 42.7378 6.22718 42.7378H42.8236C46.0894 42.7378 48.7949 40.0114 48.7949 36.603L48.7969 12.901C48.7451 9.54375 46.0913 6.81707 42.7735 6.81707H42.7734ZM24.5 35.8672C18.0677 35.8672 12.862 30.519 12.862 23.9106C12.862 17.3044 18.0677 12.0075 24.5 12.0075C30.9323 12.0075 36.138 17.3557 36.138 23.9641C36.138 30.5725 30.9323 35.8672 24.5 35.8672Z" fill="white"/>
<path fill-rule="evenodd" clip-rule="evenodd" d="M24.5 15.7852C20.1615 15.7852 16.5885 19.4559 16.5885 23.9132C16.5885 28.3706 20.1615 32.0413 24.5 32.0413C28.8385 32.0413 32.4115 28.3706 32.4115 23.9132C32.4115 19.4559 28.8385 15.7852 24.5 15.7852Z" fill="white"/>
</svg>
