<svg width="27" height="25" viewBox="0 0 27 25" fill="none" xmlns="http://www.w3.org/2000/svg">
<path fill-rule="evenodd" clip-rule="evenodd" d="M20.5978 14.3124C24.1461 14.1979 27 11.1586 27 7.42866V4.33312C27 3.22855 26.1046 2.33312 25 2.33312H21.1125V0H5.88752V2.33312H2C0.895431 2.33312 0 3.22855 0 4.33312V7.42866C0 11.1585 2.85404 14.1978 6.40215 14.3124C7.32192 16.799 9.40452 18.6951 11.9496 19.2504V21.7266C10.363 22.2156 9.06811 23.4303 8.42496 25H18.5738C17.9307 23.429 16.6358 22.2156 15.0492 21.7266V19.2504C17.5966 18.6951 19.678 16.8002 20.5978 14.3124ZM2.72414 5.76923C2.72414 5.21695 3.17185 4.76923 3.72414 4.76923L6 4.76923V11.5385C4.4107 11.1963 2.72414 9.65675 2.72414 7.8132V5.76923ZM24.3759 5.76923C24.3759 5.21695 23.9281 4.76923 23.3759 4.76923L21.1 4.76923V11.5385C22.6893 11.1963 24.3759 9.65675 24.3759 7.8132V5.76923Z" fill="#FCD669"/>
<path fill-rule="evenodd" clip-rule="evenodd" d="M13.852 5.27034L14.4225 7.10401C14.4719 7.2657 14.6158 7.37541 14.7782 7.37541H16.6253C16.7876 7.37507 16.9315 7.4841 16.9817 7.64512C17.0318 7.80648 16.9768 7.98303 16.8455 8.08227L15.3554 9.2151C15.2244 9.31468 15.1694 9.49089 15.2196 9.65157L15.79 11.4852C15.8421 11.6476 15.7868 11.8262 15.6542 11.9261C15.5213 12.0264 15.3415 12.0243 15.2105 11.9217L13.7204 10.7889C13.5891 10.6893 13.4112 10.6893 13.2799 10.7889L11.7898 11.9217C11.6588 12.0243 11.479 12.0263 11.3461 11.9261C11.2132 11.8262 11.1582 11.6476 11.2103 11.4852L11.7807 9.65157C11.8305 9.49089 11.7759 9.31468 11.6449 9.2151L10.1548 8.08227C10.0245 7.9837 9.96916 7.80952 10.017 7.64918C10.0652 7.48917 10.2059 7.37879 10.3666 7.37541H12.2137C12.3757 7.37541 12.5193 7.26671 12.5694 7.1057L13.1399 5.27039C13.19 5.10937 13.3336 5 13.4959 5C13.6583 5 13.8018 5.10937 13.852 5.27039L13.852 5.27034Z" fill="#F7835A"/>
</svg>
