<svg id="Group_14" data-name="Group 14" xmlns="http://www.w3.org/2000/svg" width="36" height="66" viewBox="0 0 36 66">
  <g id="Group_4" data-name="Group 4">
    <g id="Group_2" data-name="Group 2" transform="translate(0 4.384)">
      <path id="Path" d="M14.684,5.531c-.2-.008-.3-.017-.3-.017s-.008-.638.042-1.755C14.183,2.145,13.924.753,13.79,0A9.229,9.229,0,0,1,8.838,1.416,16.08,16.08,0,0,1,3.15.447C2.832,2.186,1.83,8.512,1.4,11.145S.193,22.48.059,24.708s0,10.135,0,10.135a2.08,2.08,0,0,0,1.27.538,1.561,1.561,0,0,0,1.019-.174.494.494,0,0,0,.067-.05s.685-2.973,1.136-6.806,1.587-8.992,2.021-11.716,1.637-8.04,1.888-9.1.568-2.053.885-2,1.161,3.18,1.412,5.7.885,8.023,1.111,11.335.635,6.1.885,8.6a32.159,32.159,0,0,0,.793,4.513c.017.05.025.083.025.083s1.328.2,1.754-.257c0-.008.008-.008.017-.017s.635-7.725.593-11.6,0-9.464.117-12.884A34.378,34.378,0,0,0,14.684,5.531Z" transform="translate(15.423 21.545)" fill="#01cbd0"/>
      <path id="Path-2" data-name="Path" d="M.39.405A6.529,6.529,0,0,0,.023,2.319c.134.324.543-.886.635-.951S.616,3.7.791,3.648a8.392,8.392,0,0,0,.451-2,13.6,13.6,0,0,0,0,2.735,11.344,11.344,0,0,0,.451-2.475S1.6,3.637,1.827,3.67s.342-1.848.342-1.848-.092,1.146.209.994S2.612.265,2.612.265.891-.416.39.405Z" transform="translate(29.417 26.741)" fill="#86bbfd"/>
      <path id="Path-3" data-name="Path" d="M5.212,2.279C5.027.908,4.479-.03,3.239,0S-.269.444.026,1.835A1.025,1.025,0,0,0,.65,2.49,1.41,1.41,0,0,0,2,2.349a1.67,1.67,0,0,1,2.336.494c.228.635.211,1.643.481,1.532.169-.06.337-.323.413-.816A4.367,4.367,0,0,0,5.212,2.279Z" transform="translate(21.445)" fill="#13005e"/>
      <path id="Path-4" data-name="Path" d="M4.732,1.891c-.042.729-.568.762-.568.762A2.026,2.026,0,0,1,2.7,4.847a2.109,2.109,0,0,1-.91,0,2.366,2.366,0,0,1-.668-.257,1.74,1.74,0,0,1-.71-.778,3.529,3.529,0,0,1-.3-.894A9.744,9.744,0,0,1,.063.335,1.647,1.647,0,0,0,1.4.219,1.868,1.868,0,0,1,3.713.624c.226.513.209,1.35.476,1.259.167-.058.334-.265.409-.671A1.391,1.391,0,0,1,4.732,1.891Z" transform="translate(22.035 1.719)" fill="#86bbfd"/>
      <path id="Path-5" data-name="Path" d="M.028,0C.019.157.011.339,0,.53c-.017.646.042,1.358.4,1.358.284,0,.418-.712.484-1.317C.913.356.921.157.93.008A2.21,2.21,0,0,1,.028,0Z" transform="translate(23.799 6.567)" fill="#86bbfd"/>
      <path id="Path-6" data-name="Path" d="M2.587,2.059A4.007,4.007,0,0,0,2.3.742c-.2-.224-.175.613-.175.613S1.451-.1,1.175.022c-.217.1.134.894.3,1.234.05.1.075.157.075.157a1.545,1.545,0,0,1-.075-.157C1.284.866.758-.127.574.014c-.226.182.7,1.7.7,1.7S.5.593.3.668C.148.726.574,1.6.8,2.009a.693.693,0,0,1,.125.2c0,.017-.05-.066-.125-.2-.217-.282-.643-.77-.777-.7-.175.1.718,1.731.718,1.731s.409-.182.768-.364C1.885,2.5,2.587,2.059,2.587,2.059Z" transform="translate(0 4.955)" fill="#86bbfd"/>
      <path id="Path-7" data-name="Path" d="M32.7,3.56C31.722.853,30.519.521,27.971.348,27.086.29,25.583.2,23.937.124c-.067.613-.2,1.317-.484,1.317-.359,0-.409-.712-.4-1.358C20.2-.033,17.2-.066,16.5.248,15.31.762,11.952,3.56,9.43,3.809S3.842,1.747,1.837.008c0,0-.7.447-1.069.621S0,.993,0,.993c.184.447,2.907,4.032,5.7,5.225a10.432,10.432,0,0,0,7.116.273A20.839,20.839,0,0,0,16.5,4.918c.184-.157.5-.248.685.878.226,1.383.092,2.542.367,5s.292,4.19.292,4.19a16.027,16.027,0,0,0,5.688.969,9.266,9.266,0,0,0,4.953-1.416s.209-3.966.292-5.854.184-3.693.476-3.469.635,2.434.476,4.819-.317,4.463-.5,6.6c-.05.638-.092,1.192-.117,1.664-.058,1.118-.042,1.755-.042,1.755s.1.008.3.017.509.008.927-.017a3.044,3.044,0,0,1,.952.017,32.993,32.993,0,0,0,1.837-7.477C33.651,8.222,33.676,6.26,32.7,3.56Z" transform="translate(0.749 7.006)" fill="#f57171"/>
      <path id="Path-8" data-name="Path" d="M2.815.538A2.08,2.08,0,0,1,1.545,0C1.295.1.017.712,0,1.076s1.136.6,2.155.364A6.123,6.123,0,0,0,3.976.646.788.788,0,0,0,3.917.323,1.887,1.887,0,0,1,2.815.538Z" transform="translate(13.954 56.388)" fill="#f57171"/>
      <path id="Path-9" data-name="Path" d="M.067.265S.059.232.042.182h0a1.374,1.374,0,0,0,0,.687c.033.008,1.712,1.283,2.7.936C3.659,1.482,2.464.4,1.821,0,1.4.464.067.265.067.265Z" transform="translate(27.944 57.042)" fill="#f57171"/>
    </g>
    <path id="Path-10" data-name="Path" d="M9.693,1.514a1.6,1.6,0,0,0-.28-.765V.731h0A1.568,1.568,0,0,0,8.106,0H1.6A1.68,1.68,0,0,0,0,1.752V4.593A1.68,1.68,0,0,0,1.6,6.345h6.5A1.5,1.5,0,0,0,9.32,5.716c.482.731,1.758,2.586,2.054,2.092S10.3,3.249,9.693,1.514Z" transform="translate(7.902)" fill="#555abf"/>
    <path id="Path-11" data-name="Path" d="M1.192,1.021A1.132,1.132,0,0,1,1.386.5V.488h0A1.1,1.1,0,0,1,2.291,0h4.5A1.138,1.138,0,0,1,7.9,1.168V3.062A1.138,1.138,0,0,1,6.793,4.23h-4.5a1.082,1.082,0,0,1-.84-.42C1.116,4.3.233,5.534.029,5.205-.176,4.9.772,2.189,1.192,1.021Z" transform="translate(28.098 5.26)" fill="#555abf"/>
  </g>
  <g id="Group_9" data-name="Group 9" transform="translate(2 18)">
    <g id="Group_4-2" data-name="Group 4" transform="translate(1.737)">
      <path id="Fill_3" data-name="Fill 3" d="M27.782,7.391a14.267,14.267,0,0,0-1.146-4.773,1.519,1.519,0,1,0-2.568-1.1,1.527,1.527,0,0,0,1.513,1.515h.091A13.183,13.183,0,0,1,26.727,7.44l-23.976,0A13.458,13.458,0,0,1,3.805,3.031H3.9A1.527,1.527,0,0,0,5.41,1.515a1.513,1.513,0,1,0-3.026,0,1.6,1.6,0,0,0,.458,1.1A15.515,15.515,0,0,0,1.7,7.39H.6a.608.608,0,0,0-.6.6v2.708a.608.608,0,0,0,.6.6H5.915V45.625a.608.608,0,0,0,.6.6h16.5a.608.608,0,0,0,.6-.6V11.292H28.93a.608.608,0,0,0,.6-.6l0-2.706a.684.684,0,0,0-.641-.6Z" fill="#232466"/>
    </g>
    <rect id="Rectangle" width="33" height="3.556" transform="translate(0 44.444)" fill="#232466"/>
  </g>
</svg>
