<svg xmlns="http://www.w3.org/2000/svg" xmlns:xlink="http://www.w3.org/1999/xlink" width="76.189" height="54.773" viewBox="0 0 76.189 54.773">
  <defs>
    <linearGradient id="linear-gradient" x1="0.52" y1="1.078" x2="0.382" y2="-0.189" gradientUnits="objectBoundingBox">
      <stop offset="0" stop-color="#252863"/>
      <stop offset="1" stop-color="#170083"/>
    </linearGradient>
  </defs>
  <g id="Group_5" data-name="Group 5" transform="translate(-0.398 -0.104)">
    <g id="Group">
      <path id="Path" d="M12.4.105c-1-.063-2.255-.111-3.649-.1v.1h-.9a.875.875,0,0,0-.007-.1C6.521.029,5.106.1,3.677.237.354.565,0,1.623,0,1.623H16.669C16.4.279,14.519.23,12.4.105Z" transform="translate(55.135 7.316)" fill="#13005e"/>
      <path id="Path-2" data-name="Path" d="M6.243,23.372c-.01-.474-.059-2.968-.326-5.417-.3-2.716-.682-8.681-1.029-12.292S4.236-.058,4.236,0,0,0,0,0L1.823,18.481a25,25,0,0,0,1.6,4.973,4.23,4.23,0,0,0,2.819,0Z" transform="translate(65.256 29.431)" fill="#f57171"/>
      <path id="Path-3" data-name="Path" d="M22.205,0H.173A.231.231,0,0,0,0,.084.225.225,0,0,1,.055.23V5.8A1.516,1.516,0,0,0,1.713,7.247a6.242,6.242,0,0,0,.659-.1c.888-.195,1.575-.557,2.227-.285a1.754,1.754,0,0,1,.68.55c1.027,1.288,1.394,3.947.312,5.208a2.239,2.239,0,0,1-.666.536,3.243,3.243,0,0,1-2.518-.07,16.465,16.465,0,0,0,2.532,1.72,1.021,1.021,0,0,1-.291.613c-.284.306-.839.815-.839.815A12.523,12.523,0,0,1,.055,14.753v6.92A.225.225,0,0,1,0,21.819a.272.272,0,0,0,.069.056.229.229,0,0,0,.1.028H8.8c.083,0,.458.571,0,1.6s-1.4,3.265.111,4.846,4.682,2.263,5.848,1a3.012,3.012,0,0,0,.257-3.669,3.252,3.252,0,0,1,.2-3.78h6.985a.29.29,0,0,0,.1-.028.238.238,0,0,0,.125-.2V.23A.231.231,0,0,0,22.205,0Z" transform="translate(51.867 8.856)" fill="#fbb745"/>
      <path id="Path-4" data-name="Path" d="M7.786,21.849A2.421,2.421,0,0,0,7.952,19.6a3.509,3.509,0,0,1,3.023-4.593A3.22,3.22,0,0,1,14.715,18a26.791,26.791,0,0,1-.983,3.849l8.554,0a.29.29,0,0,1,.1.028.271.271,0,0,0,.069-.056.225.225,0,0,0,.055-.146l0-9.524s1.089.516,2,.829,2.456.92,3.538-.34.713-3.919-.314-5.207-2-.286-3.566-.176a1.513,1.513,0,0,1-1.659-1.449l0-5.569a.225.225,0,0,0-.056-.146A.231.231,0,0,0,22.276.01L.229,0A.231.231,0,0,0,0,.23L.009,21.672a.225.225,0,0,0,.125.2.29.29,0,0,1,.1-.028Z" transform="translate(24.327 1.112) rotate(7)" fill="#01cbd0"/>
      <path id="Path-5" data-name="Path" d="M29.357,15.969c-1.228-1.775-2.31-1.2-4.308-.661s-2.56-.766-2.56-.766V7.086a.225.225,0,0,0-.055-.146.176.176,0,0,0-.069-.056.29.29,0,0,0-.1-.028H13.714a26.812,26.812,0,0,0,.985-3.85A3.213,3.213,0,0,0,10.96.019,3.518,3.518,0,0,0,7.936,4.614a2.4,2.4,0,0,1-.166,2.249H.229a.256.256,0,0,0-.1.028.229.229,0,0,0-.125.2V28.529a.231.231,0,0,0,.229.23H22.261a.231.231,0,0,0,.173-.084.225.225,0,0,0,.055-.146V22.193c.6-.731,1.706.272,3.732.7s2.768-.341,3.538-1.915A4.641,4.641,0,0,0,29.357,15.969Z" transform="translate(22.947 25.079)" fill="#555abf"/>
      <g id="Group-2" data-name="Group" transform="translate(68.676 13.924)">
        <path id="Path-6" data-name="Path" d="M1.408.285C1.033-.042.3-.056.243.084s.895.432.895.627-1.242.5-1.124.759,1.193-.341,1.193-.3S-.1,1.97.007,2.186,1.5,1.587,1.54,1.6s-.61.634-.527.766.923-.6.923-.6-.368.689-.208.842.9-.954.9-.954A10.35,10.35,0,0,0,1.408.285Z" transform="translate(0.16 9.837)" fill="#86bbfd"/>
        <path id="Path-7" data-name="Path" d="M3.774,4.135a2.983,2.983,0,0,1-.388,2.68A32.757,32.757,0,0,1,0,10.248L1.041,11.4A7.6,7.6,0,0,0,5.147,8.932C6.8,6.906,6.278,2.729,3.8,0Z" transform="translate(1.811 0.104)" fill="#13005e"/>
      </g>
      <path id="Path-8" data-name="Path" d="M.226,1.783a3.163,3.163,0,0,1-.2-1.2c.1-.118.319.731.423.717S.58.07.781.1.7,1.01.829,1.024c0,0,.361-1.058.562-1.023.153.028-.2,1.163-.132,1.163s.527-.752.631-.585-.576.961-.479.961.305-.4.409-.209S1.107,2.6,1.107,2.6A1.545,1.545,0,0,1,.226,1.783Z" transform="translate(28.021 10.923)" fill="#86bbfd"/>
      <path id="Path-9" data-name="Path" d="M1.145.071s1.186-.16,1.3,0-.59.3-.6.285S3,1.2,2.907,1.317s-1.158-.272-1.158-.272.943.773.867.9-1.2-.446-1.2-.446.673.515.569.731-.971-.487-.971-.487.569.557.472.773S0,1.5,0,1.5A10.753,10.753,0,0,0,.777.642C1.2.162,1.145.071,1.145.071Z" transform="translate(55.662 23.593)" fill="#86bbfd"/>
      <path id="Path-10" data-name="Path" d="M2.039,2.228c.291.4.562.822.888,1.218a4.132,4.132,0,0,0,3.28-1.218L6.452,0A4.85,4.85,0,0,1,3.919.891,15.824,15.824,0,0,1,0,.7,3.8,3.8,0,0,1,2.039,2.228Z" transform="translate(16.357 13.52)" fill="#f57171"/>
      <path id="Path-11" data-name="Path" d="M2.157.48A1.272,1.272,0,0,0,1.034,2.214,1.884,1.884,0,0,1,.368,4.177,2.266,2.266,0,0,0,0,4.6a3.688,3.688,0,0,0,.513.592,2.411,2.411,0,0,0,.527.369c-.1-.515-.229-1.274-.1-1.177a1.221,1.221,0,0,0,1.6-.341A5.83,5.83,0,0,0,2.983.752,1.715,1.715,0,0,0,2.74,0C2.692.355,2.379.432,2.157.48Z" transform="translate(13.617 8.173)" fill="#86bbfd"/>
      <path id="Path-12" data-name="Path" d="M9.463.927A2.119,2.119,0,0,0,6.32.524,3.792,3.792,0,0,0,5.106,3.2c-.132,1.337-.819,1.622-1.769,2.249S-.159,7.068.008,9.3s1.061,3.223,2.622,3.356a.456.456,0,0,1,.1.007A2.574,2.574,0,0,0,5.557,11a2.175,2.175,0,0,1,.756-1.6c.534-.536.6-.724.382-1.622a1.868,1.868,0,0,1,.132-1.455c.014-.028.035-.056.049-.084a2.553,2.553,0,0,1,.368-.425,1.889,1.889,0,0,0,.666-1.963A1.268,1.268,0,0,1,9.033,2.118c.229-.042.534-.125.576-.466A1.166,1.166,0,0,0,9.463.927Z" transform="translate(6.728 6.543)" fill="#242862"/>
      <path id="Path-13" data-name="Path" d="M20.346.724,19.534.091c-.444,2.416-2.747,5.465-5.515,5.563a3.93,3.93,0,0,1-3.51-1.469c-.326-.4-.6-.828-.888-1.218A3.83,3.83,0,0,0,7.582,1.441a5.449,5.449,0,0,0-.853-.188A2.552,2.552,0,0,1,5.348.592,4.015,4.015,0,0,1,4.835,0a.52.52,0,0,0-.049.084,1.864,1.864,0,0,0-.132,1.455c.208.9.153,1.086-.382,1.622a2.187,2.187,0,0,0-.756,1.6A2.574,2.574,0,0,1,.687,6.426C.52,8.64.479,10.812.493,11.78A4.578,4.578,0,0,1,0,13.841s3.344,1.295,5.113,1.107S7.3,14.3,7.3,14.3a19.593,19.593,0,0,1-.076-5.263c.1-.933.763-.822,1.179-1.316A.853.853,0,0,0,8.366,6.67a8.02,8.02,0,0,0,4.412,2.04c2.587.251,4.717-.285,6.292-3.147A8.4,8.4,0,0,0,20.346.724Z" transform="translate(8.782 12.789)" fill="#f57171"/>
      <path id="Path-14" data-name="Path" d="M.434,0C.15.153-.19.439.129.8A4.646,4.646,0,0,1,.968,2.325,1.126,1.126,0,0,0,2.2,3.077c.61-.084.721-.4.382-.654a5.694,5.694,0,0,1-.9-1.5c-.118.1-.187.16-.187.16A5.142,5.142,0,0,0,.434,0Z" transform="translate(0.398 50.955)" fill="#3a28b1"/>
      <path id="Path-15" data-name="Path" d="M1.349.446A2.691,2.691,0,0,1,.149.181a2.255,2.255,0,0,0-.132.9c.076.285,1.124.209,2,.209s1.367-.035,1.464-.209C3.562.926,2.583.195,2.008,0c.007.132.007.2.007.2A1.14,1.14,0,0,1,1.349.446Z" transform="translate(20.149 53.58)" fill="#3a28b1"/>
      <path id="Path-16" data-name="Path" d="M21.352,27.138a1.115,1.115,0,0,1-.666.251,2.669,2.669,0,0,1-1.2-.272A59.454,59.454,0,0,1,17.62,19.1a17.841,17.841,0,0,0-2.74-7.519c-1.089-1.817-2.9-4.734-3.468-5.535-.007-.007-.007-.007-.007-.014a.823.823,0,0,0-.16-.195c-.007,0-.014,0-.021.014A28.659,28.659,0,0,0,10.2,9.566a43.545,43.545,0,0,1-4.183,9.942,25.709,25.709,0,0,1-4.759,5.737c-.118.1-.187.16-.187.16A5.126,5.126,0,0,0,0,24.318l3.288-6.656C4.5,15.2,5.092,14.551,5.383,12.97s.173-3.683.7-6.294A57.4,57.4,0,0,1,7.95,0s3.344,1.295,5.113,1.107S15.247.459,15.247.459,17.585,5.9,18.633,9.044A46.311,46.311,0,0,1,20.839,19.1c.3,3.056.451,6.927.486,7.846C21.345,27.068,21.352,27.138,21.352,27.138Z" transform="translate(0.812 26.637)" fill="url(#linear-gradient)"/>
      <path id="Path-17" data-name="Path" d="M.385.275c-.007,0-.007,0-.014.007C.343.3.323.345.309.421A.224.224,0,0,1,.385.275Z" transform="translate(33.766 32.098)" fill="#13005e"/>
      <g id="Group-3" data-name="Group" transform="translate(43.703 35.506)">
        <path id="Path-18" data-name="Path" d="M.346.352h0C.353.345.339.338.346.352Z" transform="translate(0.555 0.372)" fill="#3a28b1"/>
      </g>
      <path id="Path-19" data-name="Path" d="M.548,0S.16,1.42.146,1.462a.007.007,0,0,0,.007.007l.021-.063Z" transform="translate(27.81 52.215)" fill="#13005e"/>
      <path id="Path-20" data-name="Path" d="M4.655,1.76a.453.453,0,0,1-.527.411,4.289,4.289,0,0,1-.146.71,4.256,4.256,0,0,1-.277.71.576.576,0,0,1-.049.091,1.322,1.322,0,0,1-.916.571,2.281,2.281,0,0,1-.971-.014,1.276,1.276,0,0,1-.694-.4A2.624,2.624,0,0,1,.535,2.31c-.409.1-.673-.954-.458-1.128.042-.014.354-.084.5.4.049.153.1.091.083-.272a1.006,1.006,0,0,1,.4-.954c.3-.244.444-.021,1.193.091A1.9,1.9,0,0,0,3.622.006c.16-.077.271.654.257,1.058s.361.4.472.23a.481.481,0,0,0,.021-.056A.447.447,0,0,1,4.655,1.76Z" transform="translate(61.135 2.111)" fill="#86bbfd"/>
      <path id="Path-21" data-name="Path" d="M4.478,1.706A1.988,1.988,0,0,0,2.251,0,1.959,1.959,0,0,0,.087,1.574,4.268,4.268,0,0,0,.066,3.182H.073c.042-.014.361-.084.5.4.042.153.1.091.083-.278a1.012,1.012,0,0,1,.4-.954c.3-.244.444-.021,1.193.091A1.852,1.852,0,0,0,3.618,2c.16-.07.271.661.257,1.058s.354.4.472.23a.411.411,0,0,1,.028-.056A6.991,6.991,0,0,0,4.478,1.706Z" transform="translate(61.145 0.104)" fill="#3a28b1"/>
      <path id="Path-22" data-name="Path" d="M0,0H0C.021.007.055.71.069.975a.552.552,0,0,0,.007.1h.9V.014A2.312,2.312,0,0,1,0,0Z" transform="translate(62.911 6.349)" fill="#86bbfd"/>
      <path id="Path-23" data-name="Path" d="M4.537,7.867A7.8,7.8,0,0,1,3.371,6.684C2.2,5.145,3.274,3.042,4.5,1.922a4.683,4.683,0,0,1-.659.1A1.512,1.512,0,0,1,2.178.571V0C1.374,1.218-.014,2.91,0,5.138A5,5,0,0,0,2.088,9.461l.083.063a12.392,12.392,0,0,0,3.753,1.483s.555-.508.839-.815a1.021,1.021,0,0,0,.291-.613A17.4,17.4,0,0,1,4.537,7.867Z" transform="translate(49.738 14.084)" fill="#13005e"/>
      <path id="Path-24" data-name="Path" d="M22.3,0a.29.29,0,0,1-.1.028H15.213a3.251,3.251,0,0,0-.194,3.78,3.013,3.013,0,0,1-.257,3.669c-1.172,1.26-4.336.571-5.848-1S8.345,2.666,8.8,1.629s.083-1.6,0-1.6H.173A.229.229,0,0,1,.069,0,.272.272,0,0,0,0,.056.212.212,0,0,1,.055.2V7.658s.562,1.309,2.56.766S5.7,7.31,6.923,9.085a4.616,4.616,0,0,1,.4,5.006c-.77,1.573-1.512,2.346-3.538,1.915S.666,14.565.055,15.3v6.335A.225.225,0,0,1,0,21.784a.231.231,0,0,0,.173.084H22.205a.231.231,0,0,0,.229-.23V.195A.243.243,0,0,0,22.3,0Z" transform="translate(45.25 31.963)" fill="#86bbfd"/>
      <path id="Path-25" data-name="Path" d="M3.379.55A10.316,10.316,0,0,0,2.068,0V.077a2.274,2.274,0,0,1-1.977,0c-.132.306-.111.9,0,.933s3.4,0,3.538,0S3.761.773,3.379.55Z" transform="translate(69.431 52.828)" fill="#a9a8e1"/>
      <path id="Path-26" data-name="Path" d="M.992,5.758C2.074,4.5,1.706,1.838.68.55A1.692,1.692,0,0,0,0,0H0C.194.773.3,4.846.326,6.294A2.239,2.239,0,0,0,.992,5.758Z" transform="translate(56.467 15.727)" fill="#13005e"/>
    </g>
  </g>
</svg>
