<svg id="globe" xmlns="http://www.w3.org/2000/svg" width="52" height="52" viewBox="0 0 52 52">
  <circle id="Oval" cx="26" cy="26" r="26" fill="#555abf"/>
  <path id="Shape" d="M15.159,42.66c-.263-.591-1.339-1.532-1.707-2.285s.078-2.366.026-3.307a7.286,7.286,0,0,0-1.287-2.957c-.708-1.264.184-3.7-.013-4.369s-.565-.686-2.114-.82-2.042-2.2-3.145-2.265a4.024,4.024,0,0,0-2.226.665c-.61.262-1.576.283-3.112-1.875a11.889,11.889,0,0,1-1.5-6.957c.237-.538,2.075-1.695,2.311-2.5s-.158-.3,1.024-1.909,5.529-2.273,6.224-2.232a2.943,2.943,0,0,1,2.363,1.21,8.635,8.635,0,0,0,3.933,2.467c.807.021.847-1.418,2-1.606s2.33.773,3.368.88a1.8,1.8,0,0,0,2.036-1.634,1.911,1.911,0,0,0-.624-1.68c-.355-.349-2.889.094-3.231-.511s.42-1.532.788-1.3a10.135,10.135,0,0,0,2.982.04c.144-.067.932-1.5-1.5-2.056s-2.553,1.083-2.632,1.9-.73.645-1,.423-.434.253-.286.393.532.978-.158,1.22-1.694.06-2.245-1.432-1.793-1.734-2.039-1.543.079.736.779,1.452a1.71,1.71,0,0,1,.237,2.174c-.374.363-1.209.061-1.129-.5s.722-.444.67-.659a2.767,2.767,0,0,0-2.206-1.734,4.68,4.68,0,0,0-2.889.767S6.1,12.493,5.1,11.767s.105-2.473.914-2.8,2.029.141,2.344.141.572-.626.217-.747-1.1-.968-.61-1.613c.316-.415.689-.4,1.275-.379a7.02,7.02,0,0,0,1.207-.045c.571-.282.958-1.244,1.7-1.606a1.655,1.655,0,0,1,1.2-.028,4.466,4.466,0,0,0,1.333.082c1.389-.121,2.187-1.715,1.944-2.077s-1.176.2-1.334.525-2.422,1.452-2.915.14,1.793-2.157,3.684-2.7a3.4,3.4,0,0,1,2.634.551c.678.376,1.253.752,1.719.619C21.369,1.557,21.524.085,21.533,0A25.991,25.991,0,0,1,40,22.815a.7.7,0,0,0-.546.648c-.053.725-.263,1.586-.526,1.633s-.21-1.715-.525-1.822-.841-1.909-1.366-3.038-.788-3.281-1.4-3.885c-.424-.42-2.4-.335-3.633-.251-.544.038-.941.075-1,.069-.177-.021-2.048-1.755-2.186-1.029s1.654,2.158,1.949,2.238a2.651,2.651,0,0,0,.6,0,2.078,2.078,0,0,1,1.209.14c.355.3.237,1.895,0,2.4s-1.813,2.461-3.092,2.576-2.413-2.726-2.994-3.6-2.975-3.368-3.25-2.843,1.851,2.278,2.64,3.892,2.822,4.84,3.506,4.813,1.5-.887,1.839-.618.184,1.452.184,1.452A9.513,9.513,0,0,1,29.21,29.3a5.84,5.84,0,0,0-1.923,4.356c.157.7.275,3.569-.828,4.072s-2.344,1.439-2.186,1.788S23.9,41.4,21.961,42.66,18.311,44.973,16.787,45h-.034C15.266,45,15.419,43.248,15.159,42.66Z" transform="translate(12 1)" fill="#86bbfd"/>
  <path id="Path" d="M8.03,16.663c.36.04,1.318-.924.839-4.86S2.476,7.587,1.158,5.458C-.028,3.543.259.576.329,0A26.2,26.2,0,0,0,0,4.126,25.923,25.923,0,0,0,8.124,23c1.118-1.133-.694-4.37-1.213-5.372S7.67,16.623,8.03,16.663Z" transform="translate(0 22)" fill="#86bbfd"/>
</svg>
